# Blender v3.0.1 OBJ File: 'door_dungeon.blend'
# www.blender.org
mtllib door_dungeon.mtl
o panneau_gauche_Plane.002
v -9.000000 -1.000000 8.000000
v 0.000000 -1.000000 8.000000
v -2.000000 9.000000 8.000000
v 0.000000 9.000000 8.000000
v -2.000000 9.000000 9.000000
v -9.000000 -0.500000 9.000000
v 0.000000 -0.500000 9.000000
v 0.000000 9.000000 9.000000
vt 0.000000 0.000000
vt 0.000000 1.000000
vt 1.000000 1.000000
vt 1.000000 0.000000
vt 0.000000 0.000000
vt 1.000000 0.000000
vt 1.000000 1.000000
vt 0.000000 1.000000
vn 0.0000 0.0000 -1.0000
vn 0.0000 0.0000 1.0000
vn 0.0000 1.0000 0.0000
vn 0.0000 -0.8944 0.4472
vn 1.0000 0.0000 0.0000
vn -0.8038 0.5771 -0.1443
usemtl None
s off
f 1/1/1 3/2/1 4/3/1 2/4/1
f 6/5/2 7/6/2 8/7/2 5/8/2
f 4/3/3 3/2/3 5/8/3 8/7/3
f 1/1/4 2/4/4 7/6/4 6/5/4
f 2/4/5 4/3/5 8/7/5 7/6/5
f 3/2/6 1/1/6 6/5/6 5/8/6
o panneau_droit_Plane.003
v 8.999998 -0.500000 8.999999
v -0.000001 -0.500000 8.999999
v 1.999999 9.000000 8.999999
v -0.000001 9.000000 8.999999
v 1.999999 9.000000 7.999999
v 8.999998 -1.000000 7.999999
v -0.000001 -1.000000 7.999999
v -0.000001 9.000000 7.999999
vt 0.000000 0.000000
vt 0.000000 1.000000
vt 1.000000 1.000000
vt 1.000000 0.000000
vt 0.000000 0.000000
vt 1.000000 0.000000
vt 1.000000 1.000000
vt 0.000000 1.000000
vn 0.0000 0.0000 1.0000
vn 0.0000 0.0000 -1.0000
vn 0.0000 1.0000 0.0000
vn 0.0000 -0.8944 0.4472
vn -1.0000 0.0000 0.0000
vn 0.8038 0.5771 -0.1443
usemtl None
s off
f 9/9/7 11/10/7 12/11/7 10/12/7
f 14/13/8 15/14/8 16/15/8 13/16/8
f 12/11/9 11/10/9 13/16/9 16/15/9
f 9/9/10 10/12/10 15/14/10 14/13/10
f 10/12/11 12/11/11 16/15/11 15/14/11
f 11/10/12 9/9/12 14/13/12 13/16/12
o porte_Cube
v -0.831066 2.764585 13.557301
v -1.012227 3.651486 14.345074
v -0.063175 3.459674 12.951335
v -0.244336 4.346576 13.739108
v 0.073104 2.351963 14.229774
v -0.108057 3.238864 15.017547
v 0.840995 3.047052 13.623808
v 0.659834 3.933953 14.411581
v -10.000000 0.000000 10.000000
v 10.000000 0.000001 10.000000
v -1.000000 -10.000000 -9.999999
v 1.000000 -10.000000 -10.000001
v 10.000001 1.000000 10.000000
v 1.000000 1.000000 -9.999999
v -10.000000 1.000000 10.000000
v -0.999999 1.000000 -9.999999
v -3.000000 10.000000 10.000000
v 3.000001 10.000000 10.000000
v -8.000000 1.000000 10.000000
v -2.000000 9.000001 10.000000
v 2.000001 9.000000 10.000000
v 8.000001 1.000001 10.000001
v -8.000000 0.000000 10.000000
v 8.000001 0.000000 10.000000
v 2.000000 0.000001 12.000001
v 2.000000 0.000001 15.000000
v 1.000000 0.000001 16.000000
v -1.000000 0.000001 16.000000
v -2.000000 0.000000 15.000000
v -2.000000 0.000001 12.000001
v 1.000000 0.000001 13.000001
v -1.000000 0.000000 13.000001
v -1.000000 0.000001 15.000001
v 1.000000 0.000001 15.000000
v -0.700726 0.600000 13.299274
v -0.700726 0.600001 14.700727
v 0.700726 0.600000 13.299274
v 0.700726 0.600001 14.700727
v -1.000000 1.000000 13.000000
v -1.000000 1.000001 15.000001
v 1.000000 1.000001 13.000000
v 1.000000 1.000001 15.000000
vt 0.625000 0.000000
vt 0.625000 0.250000
vt 0.375000 0.250000
vt 0.625000 0.500000
vt 0.375000 0.500000
vt 0.625000 0.750000
vt 0.375000 0.750000
vt 0.625000 1.000000
vt 0.125000 0.500000
vt 0.875000 0.500000
vt 0.875000 0.750000
vt 0.125000 0.750000
vt 0.375000 1.000000
vt 0.375000 0.000000
vt 0.000000 0.000000
vt 0.000000 0.000000
vt 0.000000 0.000000
vt 1.000000 1.000000
vt 1.000000 0.000000
vt 1.000000 0.000000
vt 1.000000 1.000000
vt 0.000000 0.000000
vt 0.000000 1.000000
vt 0.000000 1.000000
vt 0.000000 0.000000
vt 0.000000 0.000000
vt 0.000000 0.000000
vt 0.000000 0.000000
vt 0.000000 0.000000
vt 0.000000 0.000000
vt 0.000000 0.000000
vt 0.000000 0.000000
vt 0.000000 0.000000
vt 0.000000 0.000000
vt 0.000000 0.000000
vt 0.000000 0.000000
vt 0.000000 0.000000
vt 0.000000 0.000000
vt 0.000000 0.000000
vt 0.000000 0.000000
vt 0.000000 0.000000
vt 0.000000 0.000000
vt 0.000000 0.000000
vt 0.000000 0.000000
vt 0.000000 0.000000
vt 0.000000 0.000000
vt 0.000000 0.000000
vt 0.000000 0.000000
vt 0.000000 0.000000
vt 0.000000 0.000000
vt 0.000000 0.000000
vn -0.7535 0.3439 -0.5604
vn 0.6399 0.5792 -0.5050
vn 0.7535 -0.3439 0.5604
vn -0.6399 -0.5792 0.5050
vn 0.1510 -0.7391 -0.6565
vn -0.1510 0.7391 0.6565
vn 0.0000 0.0000 -1.0000
vn -0.9119 0.0000 0.4104
vn 0.9119 -0.0000 0.4104
vn 0.0000 -0.0000 1.0000
vn -0.0000 0.8944 -0.4472
vn 0.7438 -0.5785 0.3347
vn -0.7438 -0.5785 0.3347
vn 0.0000 -0.9119 0.4104
vn 0.9439 0.0000 0.3304
vn -0.7704 0.5778 -0.2696
vn -0.9439 0.0000 0.3304
vn 0.7704 0.5778 -0.2696
vn 0.0000 0.9285 -0.3714
vn 0.0000 1.0000 -0.0000
vn 0.0000 -0.7071 0.7071
vn -0.7071 -0.7071 0.0000
vn 0.0000 -0.7071 -0.7071
vn -0.5774 -0.5774 -0.5774
vn 0.0000 -1.0000 -0.0000
vn 0.7071 -0.7071 0.0000
vn 0.5774 -0.5773 -0.5774
vn 0.8007 0.5991 -0.0000
vn 0.0000 0.5991 0.8007
vn 0.0000 0.5991 -0.8007
vn -0.8007 0.5991 -0.0000
usemtl None
s off
f 18/17/13 20/18/13 19/19/13
f 20/18/14 24/20/14 23/21/14
f 23/21/15 24/20/15 22/22/15
f 21/23/16 22/22/16 18/24/16
f 19/25/17 23/21/17 21/23/17
f 20/26/18 18/27/18 22/22/18
f 24/20/18 20/26/18 22/22/18
f 21/23/15 23/21/15 22/22/15
f 19/19/14 20/18/14 23/21/14
f 17/28/17 19/25/17 21/23/17
f 17/29/16 21/23/16 18/24/16
f 17/30/13 18/17/13 19/19/13
f 34/31/19 36/32/19 33/33/19
f 28/34/20 26/35/20 29/36/20 30/37/20
f 25/38/21 27/39/21 32/40/21 31/41/21
f 27/39/22 28/34/22 30/37/22 32/40/22
f 36/32/19 34/31/19 37/42/19
f 37/42/19 34/31/19 38/43/19
f 34/31/19 29/44/19 38/43/19
f 35/45/19 33/33/19 36/32/19
f 33/33/19 35/45/19 31/41/19
f 39/46/22 35/45/22 25/38/22
f 25/38/19 31/41/19 35/45/19
f 29/44/19 26/35/19 38/43/19
f 40/47/19 38/43/19 26/35/19
f 28/34/23 40/47/23 26/35/23
f 25/38/23 39/46/23 27/39/23
f 39/46/23 40/47/23 27/39/23
f 27/39/23 40/47/23 28/34/23
f 31/41/24 32/40/24 33/33/24
f 30/37/25 29/44/25 34/31/25
f 32/40/26 30/37/26 33/33/26
f 33/33/26 30/37/26 34/31/26
f 27/39/27 35/45/27 39/46/27
f 35/45/27 27/39/27 32/40/27
f 35/45/28 36/32/28 32/40/28
f 38/43/29 28/34/29 40/47/29
f 38/43/29 30/37/29 28/34/29
f 38/43/30 30/37/30 37/42/30
f 37/42/31 32/40/31 36/32/31
f 37/42/31 30/48/31 32/49/31
f 40/47/32 39/46/32 46/50/32
f 41/51/32 40/47/32 46/50/32
f 48/52/32 47/53/32 41/51/32
f 41/51/32 47/53/32 50/54/32
f 49/55/32 48/52/32 46/50/32
f 45/56/32 44/57/32 49/55/32
f 43/58/32 42/59/32 50/54/32
f 43/58/32 50/54/32 49/55/32
f 57/60/33 55/61/33 46/50/33
f 52/62/32 54/63/32 53/64/32
f 58/65/34 57/60/34 41/51/34
f 43/58/35 44/57/35 56/66/35
f 43/58/36 58/65/36 42/59/36
f 48/52/37 47/53/37 50/54/37
f 46/50/38 55/61/38 56/66/38
f 45/56/39 56/66/39 44/57/39
f 52/62/40 51/67/40 55/61/40 56/66/40
f 51/67/41 53/64/41 57/60/41 55/61/41
f 54/63/42 52/62/42 56/66/42 58/65/42
f 53/64/43 54/63/43 58/65/43 57/60/43
f 58/65/35 43/58/35 56/66/35
f 42/59/34 58/65/34 41/51/34
f 45/56/38 46/50/38 56/66/38
f 41/51/33 57/60/33 46/50/33
f 51/67/32 52/62/32 53/64/32
f 49/55/37 48/52/37 50/54/37
f 46/50/32 48/52/32 41/51/32
f 44/57/32 43/58/32 49/55/32
f 45/56/32 49/55/32 46/50/32
f 42/59/32 41/51/32 50/54/32
