# Blender v3.0.1 OBJ File: 'starting_base.blend'
# www.blender.org
mtllib starting_base.mtl
o Plane.001_Plane.002
v -17.119041 10.000000 5.562227
v 2.924200 25.311779 -8.999915
v 12.387409 19.463253 8.999945
v -4.731639 19.463278 -14.562209
v 9.463136 25.311731 0.000000
v -4.731639 19.463278 14.562209
v -15.311662 19.463245 0.000000
v 12.387409 19.463253 -8.999945
v -7.655808 25.311775 5.562205
v 0.000000 10.000000 17.999998
v 2.924200 25.311779 8.999915
v -7.655808 25.311775 -5.562205
v 0.000000 28.000000 0.000000
v 16.099672 18.049881 0.000000
v 4.974984 18.049957 -15.311687
v -13.024931 18.049952 -9.463056
v -13.024931 18.049952 9.463056
v 4.974984 18.049957 15.311687
v 17.119041 10.000000 -5.562227
v 10.580141 10.000000 14.562301
v -10.580141 10.000000 14.562301
v -17.119041 10.000000 -5.562227
v 17.119041 10.000000 5.562227
v 10.580141 10.000000 -14.562301
v 0.000000 10.000000 -17.999998
v -10.580141 10.000000 -14.562301
v 9.611335 9.171045 -15.002069
v -17.119041 10.000000 5.562227
v 0.000000 10.000000 17.999998
v 0.015269 9.174886 -18.000027
v -9.595408 9.174886 -15.002275
v 17.119041 10.000000 -5.562227
v 10.580141 10.000000 14.562301
v -10.580141 10.000000 14.562301
v -17.119041 10.000000 -5.562227
v 17.119041 10.000000 5.562227
v -10.580141 0.000000 14.562301
v 0.000000 0.000000 17.999998
v 0.015269 4.225115 -17.996426
v -9.595408 4.225115 -15.002275
v 10.580141 0.000000 14.562301
v -17.119041 0.000000 -5.562227
v 9.611335 4.228955 -15.002069
v 17.119041 0.000000 5.562227
v 17.119041 0.000000 -5.562227
v -17.119041 0.000000 5.562227
v 0.000140 0.000000 0.002300
v 10.580141 10.000000 -14.562301
v 9.611335 4.228955 -2.002069
v 10.580141 0.000000 -14.562301
v -9.388666 4.228955 -3.002069
v 0.000000 10.000000 -17.999998
v -10.580141 10.000000 -14.562301
v -10.580141 0.000000 -14.562301
v 0.000000 0.000000 -17.999998
v -9.388666 9.228954 -3.002069
v 9.611335 9.228954 -2.002069
v 17.119040 -0.000001 5.562227
v -2.924202 -15.311779 -8.999915
v -12.387411 -9.463251 8.999945
v 4.731637 -9.463278 -14.562209
v -9.463139 -15.311730 0.000000
v 4.731637 -9.463278 14.562209
v 15.311660 -9.463246 0.000000
v -12.387411 -9.463251 -8.999945
v 7.655806 -15.311775 5.562205
v -0.000001 0.000000 17.999998
v -2.924202 -15.311779 8.999915
v 7.655806 -15.311775 -5.562205
v -16.099674 -8.049878 0.000000
v -4.974986 -8.049956 -15.311687
v 13.024929 -8.049952 -9.463056
v 13.024929 -8.049952 9.463056
v -4.974986 -8.049956 15.311687
v -17.119041 0.000001 -5.562227
v -10.580142 0.000001 14.562301
v 10.580140 -0.000001 14.562301
v 17.119040 -0.000001 -5.562227
v -17.119041 0.000001 5.562227
v -10.580142 0.000001 -14.562301
v -0.000001 0.000000 -17.999998
v 10.580140 -0.000001 -14.562301
v -0.000006 -16.999998 -0.000000
v -2.924206 -23.311779 8.999915
v 7.655802 -23.311775 -5.562205
v -9.463141 -23.311731 -0.000000
v -2.924206 -23.311779 -8.999915
v 7.655802 -23.311775 5.562205
v -16.099674 -80.008286 0.000000
v -17.119041 -79.984398 5.562227
v -4.974986 -79.980110 15.313824
v -0.000001 -79.983498 17.999998
v -12.387411 -79.937943 -8.999945
v 15.311660 -79.937927 0.000000
v 13.024929 -79.940651 -9.463056
v 4.731637 -79.980408 14.562209
v 10.580140 -79.984398 -14.562301
v -17.119041 -79.984398 -5.562227
v -10.580142 -79.980438 14.562301
v 17.119040 -79.984398 -5.562227
v 10.580140 -79.984398 14.562301
v 17.119040 -79.984398 5.562227
v -10.580142 -79.984398 -14.562301
vt 0.363637 0.314921
vt 0.454546 0.314921
vt 0.409092 0.393651
vt 0.727273 0.314921
vt 0.818182 0.314921
vt 0.772727 0.393651
vt 0.000000 0.314921
vt 0.090910 0.314921
vt 0.045455 0.393651
vt 0.545455 0.314921
vt 0.636364 0.314921
vt 0.590909 0.393651
vt 0.181819 0.314921
vt 0.272728 0.314921
vt 0.227273 0.393651
vt 0.590909 0.236191
vt 0.136365 0.236191
vt 0.045455 0.236191
vt 0.681818 0.236191
vt 0.318182 0.393651
vt 0.272728 0.472382
vt 0.681818 0.393651
vt 0.636364 0.472382
vt 0.227273 0.236191
vt 0.772727 0.236191
vt 0.136365 0.393651
vt 0.090910 0.472382
vt 0.500000 0.236191
vt 0.863636 0.393651
vt 0.818182 0.472382
vt 0.909091 0.314921
vt 0.500000 0.393651
vt 0.454546 0.472382
vt 0.318182 0.236191
vt 0.409092 0.236191
vt 0.863636 0.236191
vt 0.954545 0.236191
vt 0.409092 0.236191
vt 0.318182 0.236191
vt 0.318182 0.236191
vt 0.772727 0.236191
vt 0.681818 0.236191
vt 0.681818 0.236191
vt 0.500000 0.236191
vt 0.409092 0.236191
vt 0.227273 0.236191
vt 0.227273 0.236191
vt 0.863636 0.236191
vt 0.772727 0.236191
vt 0.136365 0.236191
vt 0.136365 0.236191
vt 0.045455 0.236191
vt 0.045455 0.236191
vt 0.954545 0.236191
vt 0.863636 0.236191
vt 0.000000 0.000000
vt 0.500000 0.236191
vt 0.590909 0.236191
vt 0.954545 0.236191
vt 0.580867 0.236191
vt 0.590909 0.236191
vt 0.510043 0.236191
vt 0.510043 0.236191
vt 0.580867 0.236191
vt 0.597652 0.236191
vt 0.675076 0.236191
vt 0.675076 0.236191
vt 0.597652 0.236191
vt 0.000000 0.000000
vt 0.000000 0.000000
vt 0.000000 0.000000
vt 0.000000 0.000000
vt 0.363637 0.314921
vt 0.454546 0.314921
vt 0.409092 0.393651
vt 0.727273 0.314921
vt 0.818182 0.314921
vt 0.772727 0.393651
vt 0.000000 0.314921
vt 0.090910 0.314921
vt 0.045455 0.393651
vt 0.545455 0.314921
vt 0.636364 0.314921
vt 0.590909 0.393651
vt 0.181819 0.314921
vt 0.272728 0.314921
vt 0.227273 0.393651
vt 0.590909 0.236191
vt 0.318182 0.236191
vt 0.363637 0.314921
vt 0.000000 0.000000
vt 0.000000 0.000000
vt 0.000000 0.000000
vt 0.045455 0.236191
vt 0.681818 0.236191
vt 0.863636 0.393651
vt 0.772727 0.393651
vt 0.318182 0.393651
vt 0.681818 0.393651
vt 0.590909 0.393651
vt 0.681818 0.393651
vt 0.181819 0.314921
vt 0.000000 0.000000
vt 0.000000 0.000000
vt 0.318182 0.393651
vt 0.227273 0.393651
vt 0.136365 0.393651
vt 0.500000 0.236191
vt 0.500000 0.393651
vt 0.409092 0.393651
vt 0.909091 0.314921
vt 0.045455 0.393651
vt 0.727273 0.314921
vt 0.818182 0.314921
vt 0.227273 0.236191
vt 0.318182 0.236191
vt 0.000000 0.000000
vt 0.000000 0.000000
vt 0.000000 0.000000
vt 0.227273 0.236191
vt 0.863636 0.236191
vt 0.954545 0.236191
vt 0.500000 0.236191
vt 0.000000 0.000000
vt 0.000000 0.000000
vt 0.000000 0.000000
vt 0.272728 0.472382
vt 0.636364 0.472382
vt 0.136365 0.393651
vt 0.090910 0.472382
vt 0.863636 0.393651
vt 0.818182 0.472382
vt 0.500000 0.393651
vt 0.454546 0.472382
vt 0.045455 0.236191
vt 0.090910 0.314921
vt 0.863636 0.236191
vt 0.000000 0.000000
vt 0.000000 0.000000
vt 0.681818 0.236191
vt 0.000000 0.000000
vt 0.000000 0.000000
vt 0.454546 0.314921
vt 0.000000 0.000000
vt 0.000000 0.000000
vt 0.000000 0.000000
vn 0.7240 0.6617 -0.1947
vn -0.7002 0.6617 -0.2680
vn -0.4713 0.6617 0.5831
vn 0.0385 0.6617 -0.7488
vn 0.4089 0.6617 0.6284
vn -0.0247 0.3304 -0.9435
vn -0.0247 0.3304 0.9435
vn -0.3035 0.1876 0.9342
vn -0.5346 0.3304 0.7779
vn -0.3035 0.1876 -0.9342
vn -0.5346 0.3304 -0.7779
vn 0.2680 0.9435 0.1947
vn 0.4911 0.7947 0.3568
vn 0.7240 0.6617 0.1947
vn -0.1024 0.9435 -0.3151
vn -0.1876 0.7947 -0.5773
vn -0.4713 0.6617 -0.5831
vn 0.3066 0.1256 0.9435
vn -0.8026 0.1256 -0.5831
vn -0.1024 0.9435 0.3151
vn -0.1876 0.7947 0.5773
vn 0.0385 0.6617 0.7488
vn 0.3066 0.1256 -0.9435
vn -0.3313 0.9435 0.0000
vn -0.6071 0.7947 0.0000
vn -0.7002 0.6617 0.2680
vn 0.2680 0.9435 -0.1947
vn 0.4911 0.7947 -0.3568
vn 0.4089 0.6617 -0.6284
vn 0.9921 0.1256 0.0000
vn 0.5746 0.3304 0.7488
vn 0.7947 0.1876 0.5773
vn 0.8897 0.3304 0.3151
vn -0.9050 0.3304 -0.2680
vn -0.9822 0.1876 0.0000
vn -0.9050 0.3304 0.2680
vn -0.8026 0.1256 0.5831
vn 0.8897 0.3304 -0.3151
vn 0.7947 0.1876 -0.5773
vn 0.5746 0.3304 -0.7488
vn 1.0000 0.0000 0.0000
vn -0.8090 0.0000 -0.5878
vn 0.8090 0.0000 -0.5878
vn 0.8090 0.0000 0.5878
vn -1.0000 0.0000 0.0000
vn 0.3090 0.0000 0.9511
vn -0.3090 0.0000 0.9511
vn -0.8090 0.0000 0.5878
vn 0.0000 -1.0000 0.0000
vn 0.3090 0.0058 -0.9510
vn 0.4133 0.0000 -0.9106
vn 0.2977 -0.0310 -0.9541
vn -0.2943 0.1519 -0.9436
vn -0.4079 0.0000 -0.9130
vn -0.2974 0.0019 -0.9547
vn -0.0001 1.0000 -0.0003
vn -0.0004 1.0000 0.0000
vn 0.0000 1.0000 -0.0002
vn 0.9999 0.0000 -0.0172
vn 0.0526 0.0000 -0.9986
vn -0.0018 -1.0000 0.0045
vn 0.0014 -1.0000 0.0045
vn -0.0002 -1.0000 0.0035
vn -0.3089 -0.0270 -0.9507
vn 0.3090 -0.0003 -0.9511
vn -0.3090 -0.0057 -0.9510
vn 0.2946 0.1559 -0.9428
vn -0.7240 -0.6617 -0.1947
vn 0.7002 -0.6617 -0.2680
vn 0.4713 -0.6617 0.5831
vn -0.0385 -0.6617 -0.7488
vn -0.4089 -0.6617 0.6284
vn 0.0247 -0.3304 -0.9435
vn 0.9836 0.0000 0.1803
vn 0.5346 -0.3304 0.7779
vn 0.3035 -0.1876 -0.9342
vn 0.5346 -0.3304 -0.7779
vn -0.4911 -0.7947 0.3568
vn -0.7240 -0.6617 0.1947
vn 0.3090 -0.0000 -0.9511
vn 0.1876 -0.7947 -0.5773
vn 0.4713 -0.6617 -0.5831
vn -0.0770 -0.0000 -0.9970
vn 0.1876 -0.7947 0.5773
vn -0.0385 -0.6617 0.7488
vn -0.3066 -0.1256 -0.9435
vn 0.6071 -0.7947 0.0000
vn 0.7002 -0.6617 0.2680
vn -0.4911 -0.7947 -0.3568
vn -0.4089 -0.6617 -0.6284
vn -0.9720 0.0000 0.2349
vn -0.5746 -0.3304 0.7488
vn -0.7947 -0.1876 0.5773
vn -0.8897 -0.3304 0.3151
vn 0.1325 0.0000 -0.9912
vn 0.9050 -0.3304 0.2680
vn 0.8026 -0.1256 0.5831
vn 0.9511 0.0000 0.3090
vn -0.5746 -0.3304 -0.7488
vn 0.5146 -0.7716 -0.3739
vn -0.1966 -0.7716 0.6050
vn -0.1966 -0.7716 -0.6050
vn -0.6361 -0.7716 0.0000
vn 0.5146 -0.7716 0.3739
vn 0.0000 0.0000 -1.0000
vn -0.9511 0.0000 0.3090
vn -0.9017 0.0000 0.4323
vn 0.9244 0.0000 0.3813
vn -0.0772 0.0000 -0.9970
vn 0.1329 -0.0000 -0.9911
usemtl None
s off
f 14/1/1 8/2/1 5/3/1
f 16/4/2 7/5/2 12/6/2
f 17/7/3 6/8/3 9/9/3
f 15/10/4 4/11/4 2/12/4
f 18/13/5 3/14/5 11/15/5
f 25/16/6 4/11/6 15/10/6
f 10/17/7 18/13/7 6/8/7
f 21/18/8 10/17/8 6/8/8
f 21/18/9 6/8/9 17/7/9
f 25/16/10 26/19/10 4/11/10
f 26/19/11 16/4/11 4/11/11
f 11/15/12 5/20/12 13/21/12
f 11/15/13 3/14/13 5/20/13
f 3/14/14 14/1/14 5/20/14
f 2/12/15 12/22/15 13/23/15
f 2/12/16 4/11/16 12/22/16
f 4/11/17 16/4/17 12/22/17
f 10/17/18 20/24/18 18/13/18
f 26/19/19 22/25/19 16/4/19
f 9/9/20 11/26/20 13/27/20
f 9/9/21 6/8/21 11/26/21
f 6/8/22 18/13/22 11/26/22
f 24/28/23 25/16/23 15/10/23
f 12/6/24 9/29/24 13/30/24
f 12/6/25 7/5/25 9/29/25
f 7/5/26 17/31/26 9/29/26
f 5/3/27 2/32/27 13/33/27
f 5/3/28 8/2/28 2/32/28
f 8/2/29 15/10/29 2/32/29
f 23/34/30 19/35/30 14/1/30
f 20/24/31 3/14/31 18/13/31
f 20/24/32 23/34/32 3/14/32
f 23/34/33 14/1/33 3/14/33
f 22/25/34 7/5/34 16/4/34
f 22/25/35 1/36/35 7/5/35
f 1/36/36 17/31/36 7/5/36
f 1/36/37 21/37/37 17/31/37
f 19/35/38 8/2/38 14/1/38
f 19/35/39 24/28/39 8/2/39
f 24/28/40 15/10/40 8/2/40
f 32/38/41 36/39/41 44/40/41
f 35/41/42 53/42/42 54/43/42
f 48/44/43 32/38/43 45/45/43
f 36/39/44 33/46/44 41/47/44
f 28/48/45 35/41/45 42/49/45
f 33/46/46 29/50/46 38/51/46
f 29/50/47 34/52/47 37/53/47
f 34/54/48 28/48/48 46/55/48
f 44/40/49 41/47/49 47/56/49
f 45/45/49 44/40/49 47/56/49
f 50/57/49 45/45/49 47/56/49
f 55/58/49 50/57/49 47/56/49
f 54/43/49 55/58/49 47/56/49
f 42/49/49 54/43/49 47/56/49
f 46/55/49 42/49/49 47/56/49
f 37/59/49 46/55/49 47/56/49
f 38/51/49 37/59/49 47/56/49
f 41/47/49 38/51/49 47/56/49
f 30/60/50 52/61/50 48/44/50
f 43/62/51 27/63/51 48/44/51
f 39/64/52 43/62/52 50/57/52
f 30/65/53 31/66/53 53/42/53
f 40/67/54 54/43/54 53/42/54
f 40/67/55 39/68/55 55/58/55
f 40/67/56 51/69/56 39/68/56
f 39/64/57 49/70/57 43/62/57
f 49/70/58 39/64/58 51/69/58
f 56/71/59 51/69/59 40/67/59
f 51/69/60 57/72/60 49/70/60
f 56/71/60 57/72/60 51/69/60
f 30/60/61 27/63/61 57/72/61
f 31/66/62 30/65/62 56/71/62
f 56/71/63 30/65/63 57/72/63
f 43/62/45 49/70/45 57/72/45
f 27/63/45 43/62/45 57/72/45
f 31/66/59 56/71/59 40/67/59
f 50/57/43 48/44/43 45/45/43
f 45/45/41 32/38/41 44/40/41
f 44/40/44 36/39/44 41/47/44
f 41/47/46 33/46/46 38/51/46
f 38/51/47 29/50/47 37/53/47
f 37/59/48 34/54/48 46/55/48
f 46/55/45 28/48/45 42/49/45
f 42/49/42 35/41/42 54/43/42
f 54/43/64 40/67/64 55/58/64
f 55/58/65 39/64/65 50/57/65
f 52/61/66 30/65/66 53/42/66
f 27/63/67 30/60/67 48/44/67
f 31/66/54 40/67/54 53/42/54
f 50/57/51 43/62/51 48/44/51
f 70/73/68 65/74/68 62/75/68
f 72/76/69 64/77/69 69/78/69
f 73/79/70 63/80/70 66/81/70
f 71/82/71 61/83/71 59/84/71
f 74/85/72 60/86/72 68/87/72
f 81/88/73 61/83/73 71/82/73
f 70/73/74 90/89/74 89/90/74
f 58/91/41 100/92/41 78/93/41
f 77/94/75 63/80/75 73/79/75
f 81/88/76 82/95/76 61/83/76
f 82/95/77 72/76/77 61/83/77
f 66/96/41 85/97/41 69/78/41
f 68/87/78 60/86/78 62/98/78
f 60/86/79 70/73/79 62/98/79
f 59/84/80 85/99/80 87/100/80
f 59/84/81 61/83/81 69/101/81
f 61/83/82 72/76/82 69/101/82
f 63/80/83 91/102/83 74/85/83
f 78/93/43 97/103/43 82/104/43
f 68/87/48 86/105/48 84/106/48
f 66/81/84 63/80/84 68/107/84
f 63/80/85 74/85/85 68/107/85
f 80/108/86 81/88/86 71/82/86
f 59/109/42 86/110/42 62/75/42
f 69/78/87 64/77/87 66/96/87
f 64/77/88 73/111/88 66/96/88
f 68/107/46 88/112/46 66/81/46
f 62/75/89 65/74/89 59/109/89
f 65/74/90 71/82/90 59/109/90
f 64/77/91 95/113/91 94/114/91
f 76/115/92 60/86/92 74/85/92
f 76/115/93 79/116/93 60/86/93
f 79/116/94 70/73/94 60/86/94
f 67/117/47 99/118/47 92/119/47
f 74/85/95 99/120/95 76/115/95
f 58/121/96 73/111/96 64/77/96
f 58/121/97 77/122/97 73/111/97
f 65/74/98 103/123/98 80/108/98
f 80/124/42 98/125/42 75/126/42
f 80/108/99 71/82/99 65/74/99
f 84/106/100 86/105/100 83/127/100
f 87/100/101 85/99/101 83/128/101
f 88/112/102 84/129/102 83/130/102
f 85/97/103 88/131/103 83/132/103
f 86/110/104 87/133/104 83/134/104
f 63/80/105 101/135/105 96/136/105
f 64/77/106 102/137/106 58/121/106
f 77/138/46 92/119/46 101/139/46
f 72/76/107 97/140/107 95/113/107
f 75/126/45 90/141/45 79/142/45
f 65/74/108 89/90/108 93/143/108
f 70/73/74 79/116/74 90/89/74
f 58/91/41 102/144/41 100/92/41
f 66/96/41 88/131/41 85/97/41
f 59/84/80 69/101/80 85/99/80
f 63/80/109 96/136/109 91/102/109
f 78/93/43 100/92/43 97/103/43
f 68/87/48 62/98/48 86/105/48
f 59/109/42 87/133/42 86/110/42
f 68/107/46 84/129/46 88/112/46
f 64/77/91 72/76/91 95/113/91
f 67/117/47 76/145/47 99/118/47
f 74/85/110 91/102/110 99/120/110
f 65/74/98 93/143/98 103/123/98
f 80/124/42 103/146/42 98/125/42
f 63/80/105 77/94/105 101/135/105
f 64/77/106 94/114/106 102/137/106
f 77/138/46 67/117/46 92/119/46
f 72/76/107 82/95/107 97/140/107
f 75/126/45 98/125/45 90/141/45
f 65/74/108 70/73/108 89/90/108
