# Blender v3.0.1 OBJ File: 'check_obj.blend'
# www.blender.org
mtllib check_obj.mtl
o Cube.001
v -2.100000 -0.400000 -2.500000
v -2.100000 -0.400000 -1.800000
v -1.900000 -0.400000 -1.800000
v -1.900000 -1.400000 -1.800000
v -1.900000 -0.400000 -2.500000
v 4.000000 -0.000000 1.500000
v 4.000000 1.000000 1.500000
v 2.000000 1.000000 1.500000
v 1.000000 1.600000 -0.500000
v -2.000000 1.600000 -0.500000
v -2.000000 1.600000 0.500000
v 1.000000 1.500000 -1.500000
v -2.000000 1.500000 -1.500000
v 1.000000 1.500000 -0.500000
v 8.000000 -0.000000 0.500000
v 8.000000 1.000000 0.500000
v 8.000000 0.000000 -0.500000
v 4.000000 0.000000 -1.500000
v 4.000000 1.000000 -1.500000
v 2.000000 -0.000000 1.500000
v 2.000000 -1.000000 0.500000
v 2.000000 -1.000000 -0.500000
v 2.000000 0.000000 -1.500000
v -2.000000 -1.000000 0.500000
v -2.000000 -1.000000 -0.500000
v -2.000000 -0.000000 1.500000
v 1.000000 1.000000 1.500000
v 1.000000 1.300000 1.500000
v 2.000000 1.000000 -1.500000
v 1.000000 1.000000 -1.500000
v 1.000000 1.300000 -1.500000
v 8.000000 1.000000 -0.500000
v 1.000000 1.500000 0.500000
v 1.000000 1.500000 1.500000
v 1.000000 1.600000 0.500000
v -2.000000 1.500000 0.500000
v -2.000000 1.500000 1.500000
v -2.000000 1.500000 -0.500000
v -3.000000 1.800000 1.800000
v -3.000000 1.800000 -1.800000
v -3.000000 -1.200000 -1.800000
v -2.000000 0.000000 -1.500000
v -3.000000 -1.200000 1.800000
v -2.000000 2.000000 -1.800000
v -2.000000 0.800000 -1.800000
v -2.000000 2.000000 2.500000
v -1.800000 2.000000 2.500000
v -1.800000 2.000000 1.800000
v -2.000000 1.000000 2.500000
v -4.700000 1.000000 2.500000
v -4.700000 0.800000 2.500000
v -1.800000 1.000000 2.500000
v -2.000000 2.000000 2.700001
v -2.000000 2.000000 1.800000
v -4.700000 2.000000 1.800000
v -4.700000 2.200000 1.800000
v -4.579999 1.961809 1.838192
v -4.579999 1.538192 1.838192
v -4.579999 1.538192 2.461809
v -4.579999 1.459755 2.459755
v -4.579999 1.459755 1.840246
v -4.579999 1.040245 1.840246
v -4.579999 1.040245 2.459755
v -4.700000 1.500000 2.500000
v -4.700000 1.000000 1.800000
v -4.700000 1.500000 1.800000
v -4.579999 1.961809 2.461809
v -4.700000 2.000000 2.500000
v -2.000000 1.000000 2.700001
v -4.700000 2.000000 2.700001
v -4.700000 1.000000 2.700001
v -4.700000 2.200000 2.500000
v -2.000000 2.200000 2.500000
v -2.000000 2.200000 1.800000
v -2.000000 0.800000 1.800000
v -2.000000 0.800000 2.500000
v -4.700000 0.800000 1.800000
v -2.000000 1.000000 1.800000
v -1.800000 1.000000 1.800000
v -3.000000 -0.200000 1.800000
v -2.100000 -1.400000 1.800000
v -4.700000 -1.400000 1.800000
v -4.700000 -0.400000 1.800000
v -4.700000 -0.200000 1.800000
v -4.700000 -0.200000 2.500000
v -2.100000 -0.400000 1.800000
v -2.100000 -0.200000 1.800000
v -2.100000 -0.200000 2.500000
v -2.100000 -0.400000 2.500000
v -4.700000 -0.400000 2.500000
v -4.700000 -1.400000 2.500000
v -4.700000 -1.400000 2.500000
v -4.700000 -0.400000 2.500000
v -2.100000 -0.400000 2.500000
v -2.100000 -1.400000 2.500000
v -2.100000 -1.400000 2.500000
v -2.100000 -0.400000 2.500000
v -4.700000 -0.400000 2.500000
v -4.700000 -1.400000 2.500000
v -4.700000 -0.400000 2.500000
v -2.100000 -0.400000 2.500000
v -4.700000 -1.400000 2.500000
v -2.100000 -1.400000 2.500000
v -4.700000 -1.400000 2.700001
v -4.700000 -0.400000 2.700001
v -2.100000 -1.400000 2.700001
v -2.100000 -0.400000 2.700001
v -4.700000 -1.600000 1.800000
v -2.100000 -1.600000 2.500000
v -4.700000 -1.600000 2.500000
v -2.100000 -1.600000 1.800000
v -4.500000 -0.446500 1.846500
v -4.500000 -0.446500 2.453501
v -4.500000 -0.853500 2.453501
v -4.500000 -1.354164 1.845837
v -4.500000 -0.945836 1.845837
v -4.500000 -0.945836 2.454164
v -4.500000 -0.853500 1.846500
v -4.700000 -0.900000 1.800000
v -4.700000 -0.900000 2.500000
v -4.500000 -1.354164 2.454164
v -1.900000 -0.400000 2.500000
v -1.900000 -0.400000 1.800000
v -1.900000 -1.400000 1.800000
v -1.900000 -1.400000 2.500000
v -4.700000 1.500000 -1.800000
v -4.700000 1.000000 -1.800000
v -4.700000 1.000000 -1.800000
v -4.700000 1.500000 -1.800000
v -2.000000 2.000000 -2.500000
v -2.000000 2.200000 -2.500000
v -4.700000 1.000000 -2.500000
v -2.000000 1.000000 -2.500000
v -2.000000 1.000000 -2.700000
v -4.700000 2.000000 -1.800000
v -4.700000 2.000000 -2.500000
v -4.700000 2.200000 -2.500000
v -4.700000 2.000000 -2.700000
v -4.580000 1.537447 -2.462553
v -4.580000 1.537447 -1.837447
v -4.580000 1.962553 -1.837447
v -4.580000 1.962553 -2.462553
v -4.700000 1.500000 -2.500000
v -4.580000 1.028003 -1.828003
v -4.580000 1.028003 -2.471997
v -4.580000 1.471997 -2.471997
v -4.700000 1.000000 -1.800000
v -4.700000 1.000000 -2.500000
v -4.700000 1.500000 -2.500000
v -4.580000 1.471997 -1.828003
v -4.700000 1.500000 -1.800000
v -2.000000 1.000000 -1.800000
v -1.800000 1.000000 -1.800000
v -1.800000 1.000000 -2.500000
v -1.800000 2.000000 -2.500000
v -1.800000 2.000000 -1.800000
v -3.400000 1.600000 0.000000
v -2.000000 2.200000 -1.800000
v -4.700000 2.200000 -1.800000
v -2.000000 2.000000 -2.700000
v -4.700000 1.000000 -2.700000
v -4.700000 0.800000 -1.800000
v -4.700000 0.800000 -2.500000
v -2.000000 0.800000 -2.500000
v -4.700000 -0.900000 -1.800000
v -4.700000 -1.400000 -1.800000
v -3.000000 -0.200000 -1.800000
v -2.100000 -0.400000 -2.500000
v -4.700000 -0.400000 -2.500000
v -4.700000 -0.400000 -2.700000
v -2.100000 -0.400000 -2.700000
v -2.100000 -1.400000 -2.700000
v -4.700000 -1.400000 -2.700000
v -4.700000 -1.400000 -2.500000
v -2.100000 -1.400000 -2.500000
v -2.100000 -1.400000 -1.800000
v -2.100000 -0.200000 -2.500000
v -2.100000 -0.200000 -1.800000
v -4.700000 -0.200000 -1.800000
v -4.700000 -0.200000 -2.500000
v -4.700000 -0.400000 -1.800000
v -4.700000 -1.600000 -2.500000
v -2.100000 -1.600000 -1.800000
v -2.100000 -1.600000 -2.500000
v -4.700000 -1.600000 -1.800000
v -1.900000 -0.400000 -1.800000
v -1.900000 -1.400000 -2.500000
v -1.900000 -1.400000 -2.500000
v -4.500000 -0.853710 -2.453710
v -4.500000 -0.853710 -1.846290
v -4.500000 -0.446290 -1.846290
v -4.500000 -1.343253 -1.856747
v -4.500000 -0.956747 -1.856747
v -4.500000 -0.956747 -2.443253
v -4.700000 -0.900000 -2.500000
v -4.500000 -0.446290 -2.453710
v -4.500000 -1.343253 -2.443253
v -2.000000 0.300000 -5.000000
v -4.900000 0.200000 0.000000
v -3.300000 0.000000 -6.100000
v 0.000000 0.000000 -6.100000
v 0.100000 -0.000000 6.100000
v -3.300000 -0.000000 6.100000
v -2.000000 0.300000 5.000000
v -3.400000 -0.900000 -0.000000
vt 0.000000 0.000000
vt 0.000000 0.000000
vt 0.000000 0.000000
vt 0.000000 0.000000
vt 0.000000 0.000000
vt 0.375000 0.750000
vt 0.625000 0.750000
vt 0.625000 1.000000
vt 0.625000 0.750000
vt 0.625000 0.750000
vt 0.625000 0.750000
vt 0.000000 0.000000
vt 0.000000 0.000000
vt 0.625000 0.750000
vt 0.375000 0.750000
vt 0.625000 0.750000
vt 0.375000 0.750000
vt 0.375000 0.750000
vt 0.625000 0.750000
vt 0.000000 0.000000
vt 0.375000 1.000000
vt 0.375000 1.000000
vt 0.000000 0.000000
vt 0.375000 0.750000
vt 0.375000 0.750000
vt 0.375000 1.000000
vt 0.375000 0.750000
vt 0.000000 0.000000
vt 0.625000 1.000000
vt 0.000000 0.000000
vt 0.625000 0.750000
vt 0.625000 0.750000
vt 0.000000 0.000000
vt 0.000000 0.000000
vt 0.000000 0.000000
vt 0.625000 0.750000
vt 0.625000 0.750000
vt 0.000000 0.000000
vt 0.625000 0.750000
vt 0.625000 0.750000
vt 0.000000 0.000000
vt 0.625000 0.750000
vt 0.000000 0.000000
vt 0.000000 0.000000
vt 0.000000 0.000000
vt 0.000000 0.000000
vt 0.000000 0.000000
vt 0.000000 0.000000
vt 0.000000 0.000000
vt 0.000000 0.000000
vt 0.000000 0.000000
vt 0.000000 0.000000
vt 0.000000 0.000000
vt 0.000000 0.000000
vt 0.000000 0.000000
vt 0.000000 0.000000
vt 0.000000 0.000000
vt 0.000000 0.000000
vt 0.000000 0.000000
vt 0.000000 0.000000
vt 0.000000 0.000000
vt 0.000000 0.000000
vt 0.000000 0.000000
vt 0.000000 0.000000
vt 0.000000 0.000000
vt 0.000000 0.000000
vt 0.000000 0.000000
vt 0.000000 0.000000
vt 0.000000 0.000000
vt 0.000000 0.000000
vt 0.000000 0.000000
vt 0.000000 0.000000
vt 0.000000 0.000000
vt 0.000000 0.000000
vt 0.000000 0.000000
vt 0.000000 0.000000
vt 0.000000 0.000000
vt 0.000000 0.000000
vt 0.000000 0.000000
vt 0.000000 0.000000
vt 0.000000 0.000000
vt 0.000000 0.000000
vt 0.000000 0.000000
vt 0.000000 0.000000
vt 0.000000 0.000000
vt 0.000000 0.000000
vt 0.000000 0.000000
vt 0.000000 0.000000
vt 0.000000 0.000000
vt 0.000000 0.000000
vt 0.000000 0.000000
vt 0.000000 0.000000
vt 0.000000 0.000000
vt 0.000000 0.000000
vt 0.000000 0.000000
vt 0.000000 0.000000
vt 0.000000 0.000000
vt 0.000000 0.000000
vt 0.000000 0.000000
vt 0.000000 0.000000
vt 0.000000 0.000000
vt 0.000000 0.000000
vt 0.000000 0.000000
vt 0.000000 0.000000
vt 0.000000 0.000000
vt 0.000000 0.000000
vt 0.000000 0.000000
vt 0.000000 0.000000
vt 0.000000 0.000000
vt 0.000000 0.000000
vt 0.000000 0.000000
vt 0.000000 0.000000
vt 0.000000 0.000000
vt 0.000000 0.000000
vt 0.000000 0.000000
vt 0.000000 0.000000
vt 0.000000 0.000000
vt 0.000000 0.000000
vt 0.000000 0.000000
vt 0.000000 0.000000
vt 0.000000 0.000000
vt 0.000000 0.000000
vt 0.000000 0.000000
vt 0.000000 0.000000
vt 0.000000 0.000000
vt 0.000000 0.000000
vt 0.000000 0.000000
vt 0.000000 0.000000
vt 0.000000 0.000000
vt 0.000000 0.000000
vt 0.000000 0.000000
vt 0.000000 0.000000
vt 0.000000 0.000000
vt 0.000000 0.000000
vt 0.000000 0.000000
vt 0.000000 0.000000
vt 0.000000 0.000000
vt 0.000000 0.000000
vt 0.000000 0.000000
vt 0.000000 0.000000
vt 0.000000 0.000000
vt 0.000000 0.000000
vt 0.000000 0.000000
vt 0.000000 0.000000
vt 0.000000 0.000000
vt 0.000000 0.000000
vt 0.000000 0.000000
vt 0.000000 0.000000
vt 0.000000 0.000000
vt 0.000000 0.000000
vt 0.000000 0.000000
vt 0.000000 0.000000
vt 0.000000 0.000000
vt 0.000000 0.000000
vt 0.000000 0.000000
vt 0.000000 0.000000
vt 0.000000 0.000000
vt 0.000000 0.000000
vt 0.000000 0.000000
vt 0.000000 0.000000
vt 0.000000 0.000000
vt 0.000000 0.000000
vt 0.000000 0.000000
vt 0.000000 0.000000
vt 0.000000 0.000000
vt 0.000000 0.000000
vt 0.000000 0.000000
vt 0.000000 0.000000
vt 0.000000 0.000000
vt 0.000000 0.000000
vt 0.000000 0.000000
vt 0.000000 0.000000
vt 0.000000 0.000000
vt 0.000000 0.000000
vt 0.000000 0.000000
vt 0.000000 0.000000
vt 0.000000 0.000000
vt 0.000000 0.000000
vt 0.000000 0.000000
vt 0.000000 0.000000
vt 0.000000 0.000000
vt 0.000000 0.000000
vt 0.000000 0.000000
vt 0.000000 0.000000
vt 0.000000 0.000000
vt 0.000000 0.000000
vt 0.000000 0.000000
vt 0.000000 0.000000
vt 0.000000 0.000000
vt 0.000000 0.000000
vt 0.000000 0.000000
vt 0.000000 0.000000
vt 0.000000 0.000000
vt 0.000000 0.000000
vt 0.000000 0.000000
vt 0.000000 0.000000
vt 0.000000 0.000000
vt 0.000000 0.000000
vt 0.000000 0.000000
vt 0.000000 0.000000
vt 0.000000 0.000000
vt 0.000000 0.000000
vt 0.000000 0.000000
vt 0.000000 0.000000
vt 0.000000 0.000000
vt 0.000000 0.000000
vt 0.000000 0.000000
vt 0.000000 0.000000
vt 0.000000 0.000000
vt 0.000000 0.000000
vt 0.000000 0.000000
vt 0.000000 0.000000
vt 0.000000 0.000000
vn 0.0000 1.0000 0.0000
vn 0.0000 -0.0000 1.0000
vn 0.2425 0.0000 0.9701
vn 1.0000 0.0000 0.0000
vn 0.2425 0.0000 -0.9701
vn 0.1170 -0.7022 0.7022
vn 0.0000 -1.0000 -0.0000
vn 0.1170 -0.7022 -0.7022
vn 0.1644 -0.9864 0.0000
vn 0.0000 -0.7071 0.7071
vn 0.0000 -0.7071 -0.7071
vn 0.0000 0.0000 -1.0000
vn 0.1442 0.4806 -0.8650
vn 0.1442 0.4806 0.8650
vn 0.0712 0.9975 0.0000
vn 0.0699 0.9782 0.1956
vn 0.0699 0.9782 -0.1956
vn 0.7926 0.0000 0.6097
vn 0.7926 0.0000 -0.6097
vn 0.2873 0.9578 0.0000
vn 0.1961 0.9806 0.0000
vn 0.7276 -0.4851 -0.4851
vn 0.1961 -0.9806 -0.0000
vn 0.7276 -0.4851 0.4851
vn -1.0000 0.0000 0.0000
vn -0.3180 0.0000 -0.9481
vn -0.3180 0.9481 0.0000
vn -0.3180 -0.0000 0.9481
vn -0.3180 -0.9481 0.0000
vn -0.3033 -0.9529 0.0000
vn -0.3033 0.0000 -0.9529
vn -0.3033 0.0000 0.9529
vn -0.3033 0.9529 0.0000
vn 0.2873 0.0000 0.9578
vn 0.2265 0.0000 -0.9740
vn 0.2265 -0.9740 -0.0000
vn 0.2265 0.0000 0.9740
vn 0.2265 0.9740 0.0000
vn 0.2234 0.0000 -0.9747
vn 0.2234 0.9747 0.0000
vn 0.2234 -0.9747 0.0000
vn 0.2234 0.0000 0.9747
vn -0.2979 0.0000 0.9546
vn -0.2979 -0.9546 0.0000
vn -0.2979 0.9546 0.0000
vn -0.2979 0.0000 -0.9546
vn 0.2273 -0.9738 0.0000
vn 0.2273 0.0000 -0.9738
vn 0.2273 -0.0000 0.9738
vn 0.2273 0.9738 0.0000
vn -0.1734 0.9823 -0.0706
vn 0.2873 0.0000 -0.9578
vn -0.8098 -0.4326 -0.3963
vn -0.1952 0.7263 -0.6591
vn -0.0000 0.6853 -0.7282
vn 0.0000 -0.0488 -0.9988
vn -0.2255 0.9742 0.0000
vn -0.2255 0.0000 -0.9742
vn -0.2255 -0.9742 -0.0000
vn -0.2255 0.0000 0.9742
vn -0.2730 -0.9620 -0.0000
vn -0.2730 0.0000 -0.9620
vn -0.2730 0.9620 0.0000
vn -0.2730 0.0000 0.9620
vn 0.1381 0.9785 -0.1529
vn 0.1634 -0.9837 0.0751
vn -0.2876 0.9463 -0.1479
vn -0.1006 -0.9911 0.0874
vn -0.0297 0.9992 0.0258
vn 0.0000 -0.9648 0.2631
vn 0.0000 0.9989 0.0465
vn 0.0980 0.3920 -0.9147
vn 0.0000 0.8321 -0.5547
vn 0.2322 0.9722 0.0290
vn 0.0000 -0.9648 -0.2631
vn -0.0981 -0.9917 -0.0832
vn 0.1634 -0.9837 -0.0751
vn -0.2876 0.9463 0.1479
vn -0.1381 -0.9785 -0.1529
vn -0.0296 0.9992 -0.0251
vn 0.0000 0.9989 -0.0465
vn 0.2322 0.9722 -0.0290
vn -0.0980 -0.3920 -0.9147
vn 0.0000 0.8321 0.5547
vn -0.4472 0.8944 0.0000
vn -0.6000 -0.8000 -0.0000
vn 0.1724 0.9771 -0.1245
vn -0.1724 -0.9771 -0.1245
vn -0.1734 0.9823 0.0706
vn -0.2026 0.9793 0.0000
vn -0.2443 -0.9423 -0.2288
vn -0.2443 -0.9423 0.2288
vn -0.4961 -0.8682 0.0000
vn 0.3665 0.3665 -0.8552
vn 0.3665 0.3665 0.8552
vn 0.3671 -0.8916 -0.2651
vn -0.3671 0.8916 -0.2651
vn 0.2060 0.9785 0.0000
vn 0.8682 -0.4961 -0.0000
usemtl Material.003
s off
f 1/1/1 2/2/1 3/3/1
f 2/2/2 4/4/2 3/3/2
f 3/3/1 5/5/1 1/1/1
s 1
f 6/6/2 7/7/2 8/8/2
f 9/9/1 10/10/1 11/11/1
f 12/12/1 13/13/1 14/14/1
f 7/7/3 6/6/3 15/15/3
f 16/16/4 15/15/4 17/17/4
f 17/17/5 18/18/5 19/19/5
f 15/20/6 20/21/6 21/22/6
f 6/6/7 20/21/7 15/15/7
f 17/23/8 22/24/8 23/25/8
f 18/18/7 17/23/7 23/25/7
f 17/23/9 15/20/9 21/22/9
f 21/22/7 24/26/7 25/27/7
f 20/21/10 26/28/10 24/26/10
f 23/25/11 22/24/11 25/27/11
f 27/29/2 8/8/2 28/30/2
f 29/31/12 30/32/12 31/33/12
f 32/34/13 29/31/13 31/33/13
f 8/8/14 16/35/14 28/30/14
f 7/7/1 16/16/1 8/8/1
f 19/19/1 29/31/1 32/34/1
f 32/36/15 14/14/15 33/37/15
f 16/16/16 33/37/16 28/30/16
f 31/33/17 14/14/17 32/36/17
f 33/37/4 34/38/4 28/30/4
f 14/14/4 31/33/4 12/12/4
f 14/14/4 9/9/4 35/39/4
f 33/37/1 36/40/1 37/41/1
f 11/11/2 36/40/2 33/37/2
f 14/14/12 38/42/12 10/10/12
f 18/43/12 13/13/12 30/44/12
f 39/45/18 36/40/18 11/11/18
f 38/42/19 40/46/19 10/10/19
f 40/46/20 38/42/20 13/13/20
f 10/10/21 40/46/21 11/11/21
f 40/46/21 39/45/21 11/11/21
f 37/41/20 36/40/20 39/45/20
f 25/27/22 41/47/22 42/48/22
f 41/47/23 25/27/23 43/49/23
f 24/26/23 43/49/23 25/27/23
f 24/26/24 26/28/24 43/49/24
f 44/50/12 45/51/12 40/46/12
f 46/52/1 47/53/1 48/54/1
f 49/55/2 50/56/2 51/57/2
f 46/52/2 49/55/2 52/58/2
f 49/55/4 46/52/4 53/59/4
f 54/60/12 55/61/12 56/62/12
f 57/63/25 58/64/25 59/65/25
f 60/66/25 61/67/25 62/68/25
f 63/69/26 50/56/26 64/70/26
f 63/69/27 62/68/27 65/71/27
f 62/68/28 61/67/28 66/72/28
f 60/66/29 64/70/29 66/72/29
f 67/73/30 68/74/30 55/61/30
f 67/73/31 59/65/31 64/70/31
f 57/63/32 55/61/32 66/72/32
f 59/65/33 58/64/33 66/72/33
f 69/75/2 53/59/2 70/76/2
f 49/55/7 69/75/7 71/77/7
f 46/52/1 68/74/1 70/76/1
f 68/74/25 50/56/25 71/77/25
f 72/78/1 73/79/1 74/80/1
f 54/60/4 74/80/4 73/79/4
f 55/61/25 68/74/25 72/78/25
f 46/52/2 73/79/2 72/78/2
f 51/57/7 75/81/7 76/82/7
f 65/71/25 77/83/25 51/57/25
f 78/84/4 49/55/4 76/82/4
f 79/85/4 48/54/4 47/53/4
f 47/53/4 52/58/4 79/85/4
f 54/60/12 48/54/12 79/85/12
f 49/55/7 78/84/7 79/85/7
f 54/60/12 39/45/12 55/61/12
f 29/31/12 18/18/12 30/32/12
f 8/8/2 27/86/2 6/6/2
f 21/22/10 20/21/10 24/26/10
f 25/27/11 42/48/11 23/25/11
f 22/24/7 21/22/7 25/27/7
f 22/24/9 17/23/9 21/22/9
f 32/36/5 17/17/5 19/19/5
f 16/16/3 7/7/3 15/15/3
f 32/36/4 16/16/4 17/17/4
f 6/87/2 27/86/2 37/41/2
f 37/41/2 27/86/2 34/38/2
f 30/44/12 13/13/12 12/12/12
f 19/19/12 18/18/12 29/31/12
f 66/72/12 75/81/12 65/71/12
f 56/62/1 72/78/1 74/80/1
f 68/74/2 46/52/2 72/78/2
f 53/59/1 46/52/1 70/76/1
f 71/77/2 69/75/2 70/76/2
f 69/75/4 49/55/4 53/59/4
f 75/81/4 78/84/4 76/82/4
f 46/52/4 54/60/4 73/79/4
f 54/60/1 46/52/1 48/54/1
f 78/84/12 54/60/12 79/85/12
f 74/80/12 54/60/12 56/62/12
f 66/72/12 55/61/12 39/45/12
f 70/76/25 68/74/25 71/77/25
f 50/56/25 65/71/25 51/57/25
f 56/62/25 55/61/25 72/78/25
f 68/74/31 67/73/31 64/70/31
f 60/66/26 63/69/26 64/70/26
f 65/71/28 62/68/28 66/72/28
f 58/64/32 57/63/32 66/72/32
f 67/73/25 57/63/25 59/65/25
f 63/69/25 60/66/25 62/68/25
f 50/56/27 63/69/27 65/71/27
f 64/70/33 59/65/33 66/72/33
f 61/67/29 60/66/29 66/72/29
f 57/63/30 67/73/30 55/61/30
f 50/56/7 49/55/7 71/77/7
f 34/38/1 33/37/1 37/41/1
f 38/42/1 14/14/1 13/13/1
f 9/9/12 14/14/12 10/10/12
f 35/39/2 11/11/2 33/37/2
f 35/39/1 9/9/1 11/11/1
f 33/37/4 14/14/4 35/39/4
f 16/16/15 32/36/15 33/37/15
f 43/49/34 26/28/34 80/88/34
f 81/89/2 43/49/2 82/90/2
f 65/71/12 75/81/12 77/83/12
f 77/83/7 75/81/7 51/57/7
f 76/82/2 49/55/2 51/57/2
f 47/53/2 46/52/2 52/58/2
f 83/91/4 84/92/4 85/93/4
f 80/88/2 84/92/2 83/91/2
f 86/94/4 87/95/4 88/96/4
f 84/92/7 80/88/7 85/93/7
f 87/95/1 85/93/1 88/96/1
f 87/95/7 85/93/7 80/88/7
f 89/97/2 88/96/2 85/93/2
f 87/95/12 86/94/12 80/88/12
f 90/98/2 91/99/2 92/100/2 93/101/2
f 94/102/2 95/103/2 96/104/2 97/105/2
f 98/106/2 99/107/2 91/99/2 90/98/2
f 89/97/2 98/106/2 90/98/2 94/102/2
f 97/105/2 93/101/2 100/108/2 101/109/2
f 93/101/2 92/100/2 102/110/2 100/108/2
f 94/102/2 90/98/2 93/101/2 97/105/2
f 95/103/2 91/99/2 92/100/2 96/104/2
f 103/111/1 102/110/1 104/112/1
f 101/109/1 100/108/1 105/113/1
f 96/104/2 92/100/2 102/110/2 103/111/2
f 97/105/2 96/104/2 103/111/2 101/109/2
f 106/114/12 104/112/12 107/115/12
f 107/115/2 105/113/2 104/112/2
f 101/109/25 103/111/25 106/114/25
f 102/110/25 104/112/25 105/113/25
f 107/115/1 101/109/1 105/113/1
f 106/114/1 103/111/1 104/112/1
f 100/108/25 102/110/25 105/113/25
f 98/106/4 83/91/4 85/93/4
f 81/89/2 82/90/2 108/116/2
f 103/111/12 109/117/12 110/118/12
f 111/119/1 110/118/1 109/117/1
f 110/118/1 111/119/1 108/116/1
f 82/90/4 102/110/4 110/118/4
f 81/89/25 111/119/25 109/117/25
f 102/110/12 103/111/12 110/118/12
f 98/106/2 89/97/2 85/93/2
f 108/116/4 82/90/4 110/118/4
f 112/120/4 113/121/4 114/122/4
f 115/123/4 116/124/4 117/125/4
f 112/120/35 118/126/35 119/127/35
f 114/122/36 120/128/36 119/127/36
f 113/121/37 100/108/37 120/128/37
f 113/121/38 112/120/38 83/91/38
f 115/123/39 82/90/39 119/127/39
f 117/125/40 116/124/40 119/127/40
f 121/129/41 102/110/41 82/90/41
f 121/129/42 117/125/42 120/128/42
f 103/111/12 101/109/12 122/130/12
f 101/109/7 86/94/7 123/131/7
f 124/132/25 125/133/25 123/131/25
f 123/131/25 125/133/25 122/130/25
f 81/89/2 124/132/2 123/131/2
f 103/111/1 125/133/1 124/132/1
f 125/133/12 103/111/12 122/130/12
f 122/130/7 101/109/7 123/131/7
f 81/89/1 103/111/1 124/132/1
f 52/58/7 49/55/7 79/85/7
f 86/94/2 81/89/2 123/131/2
f 111/119/2 81/89/2 108/116/2
f 119/127/2 82/90/2 43/49/2
f 83/91/2 119/127/2 80/88/2
f 86/94/2 80/88/2 81/89/2
f 118/126/4 112/120/4 114/122/4
f 121/129/4 115/123/4 117/125/4
f 116/124/39 115/123/39 119/127/39
f 83/91/35 112/120/35 119/127/35
f 100/108/38 113/121/38 83/91/38
f 120/128/40 117/125/40 119/127/40
f 115/123/41 121/129/41 82/90/41
f 118/126/36 114/122/36 119/127/36
f 114/122/37 113/121/37 120/128/37
f 102/110/42 121/129/42 120/128/42
f 126/134/2 127/135/2 128/136/2 129/137/2
f 44/50/4 130/138/4 131/139/4
f 132/140/1 133/141/1 134/142/1
f 129/137/2 40/46/2 135/143/2
f 130/138/12 136/144/12 137/145/12
f 130/138/7 136/144/7 138/146/7
f 139/147/25 140/148/25 141/149/25
f 142/150/43 136/144/43 143/151/43
f 142/150/44 141/149/44 135/143/44
f 139/147/45 143/151/45 129/137/45
f 141/149/46 140/148/46 129/137/46
f 144/152/4 145/153/4 146/154/4
f 144/152/47 147/155/47 148/156/47
f 145/153/48 148/156/48 149/157/48
f 144/152/49 150/158/49 151/159/49
f 146/154/50 149/157/50 151/159/50
f 135/143/2 40/46/2 44/50/2
f 152/160/1 153/161/1 154/162/1
f 130/138/7 155/163/7 156/164/7
f 39/45/51 157/165/51 66/72/51
f 142/150/25 139/147/25 141/149/25
f 150/158/4 144/152/4 146/154/4
f 147/155/49 144/152/49 151/159/49
f 135/143/46 141/149/46 129/137/46
f 139/147/43 142/150/43 143/151/43
f 146/154/48 145/153/48 149/157/48
f 140/148/45 139/147/45 129/137/45
f 150/158/50 146/154/50 151/159/50
f 145/153/47 144/152/47 148/156/47
f 136/144/44 142/150/44 135/143/44
f 158/166/1 131/139/1 137/145/1
f 137/145/1 159/167/1 158/166/1
f 44/50/2 158/166/2 159/167/2
f 135/143/25 159/167/25 137/145/25
f 134/142/2 160/168/2 138/146/2
f 134/142/2 138/146/2 161/169/2
f 133/141/25 130/138/25 160/168/25
f 136/144/4 132/140/4 161/169/4
f 153/161/25 155/163/25 154/162/25
f 156/164/25 155/163/25 153/161/25
f 130/138/2 133/141/2 154/162/2
f 44/50/12 156/164/12 153/161/12
f 162/170/4 163/171/4 147/155/4
f 147/155/4 163/171/4 148/156/4
f 162/170/12 147/155/12 45/51/12
f 164/172/25 45/51/25 152/160/25
f 152/160/25 133/141/25 164/172/25
f 163/171/1 45/51/1 164/172/1
f 163/171/1 162/170/1 45/51/1
f 164/172/2 133/141/2 163/171/2
f 163/171/2 133/141/2 148/156/2
f 41/47/2 165/173/2 166/174/2
f 41/47/52 167/175/52 42/48/52
f 158/166/4 44/50/4 131/139/4
f 134/142/25 133/141/25 160/168/25
f 168/176/7 169/177/7 170/178/7
f 168/176/25 171/179/25 172/180/25
f 170/178/12 172/180/12 173/181/12
f 172/180/2 171/179/2 170/178/2
f 174/182/25 169/177/25 170/178/25
f 174/182/7 173/181/7 172/180/7
f 175/183/53 176/184/54 4/4/55
f 103/111/25 81/89/25 109/117/25
f 89/97/4 86/94/4 88/96/4
f 177/185/4 2/2/4 1/1/4
f 177/185/4 178/186/4 2/2/4
f 131/139/12 130/138/12 137/145/12
f 135/143/2 44/50/2 159/167/2
f 136/144/25 135/143/25 137/145/25
f 179/187/1 167/175/1 180/188/1
f 167/175/1 178/186/1 180/188/1
f 180/188/1 178/186/1 177/185/1
f 180/188/12 177/185/12 1/1/12
f 181/189/25 179/187/25 180/188/25
f 167/175/2 179/187/2 181/189/2
f 181/189/2 165/173/2 167/175/2
f 176/184/2 41/47/2 166/174/2
f 167/175/2 176/184/2 178/186/2
f 175/183/11 182/190/12 174/182/56
f 176/184/1 174/182/1 166/174/1
f 183/191/7 182/190/7 184/192/7
f 183/191/7 185/193/7 182/190/7
f 176/184/4 183/191/4 184/192/4
f 176/184/2 166/174/2 185/193/2
f 176/184/54 175/183/53 184/192/25
f 166/174/25 174/182/25 182/190/25
f 175/183/11 184/192/12 182/190/12
f 107/115/25 101/109/25 106/114/25
f 175/183/25 168/176/25 172/180/25
f 186/194/25 187/195/25 4/4/25
f 188/196/25 3/3/25 5/5/25
f 1/1/2 175/183/2 5/5/2
f 155/163/2 130/138/2 154/162/2
f 152/160/12 44/50/12 153/161/12
f 44/50/7 130/138/7 156/164/7
f 160/168/7 130/138/7 138/146/7
f 161/169/1 132/140/1 134/142/1
f 175/183/11 174/182/56 172/180/7
f 189/197/25 190/198/25 191/199/25
f 192/200/25 193/201/25 194/202/25
f 173/181/25 174/182/25 170/178/25
f 169/177/25 181/189/25 180/188/25
f 185/193/25 166/174/25 182/190/25
f 183/191/2 176/184/2 185/193/2
f 5/5/2 175/183/2 188/196/2
f 169/177/12 180/188/12 1/1/12
f 171/179/7 168/176/7 170/178/7
f 45/51/12 147/155/12 151/159/12
f 189/197/57 195/203/57 165/173/57
f 191/199/58 190/198/58 165/173/58
f 196/204/59 191/199/59 181/189/59
f 196/204/60 169/177/60 195/203/60
f 194/202/61 193/201/61 165/173/61
f 192/200/62 166/174/62 165/173/62
f 197/205/63 174/182/63 166/174/63
f 197/205/64 194/202/64 195/203/64
f 196/204/25 189/197/25 191/199/25
f 197/205/25 192/200/25 194/202/25
f 192/200/63 197/205/63 166/174/63
f 190/198/57 189/197/57 165/173/57
f 169/177/59 196/204/59 181/189/59
f 195/203/61 194/202/61 165/173/61
f 189/197/60 196/204/60 195/203/60
f 174/182/64 197/205/64 195/203/64
f 193/201/62 192/200/62 165/173/62
f 181/189/58 191/199/58 165/173/58
f 18/43/65 198/206/65 45/51/65
f 199/207/66 200/208/66 198/206/66
f 198/206/67 199/207/67 45/51/67
f 201/209/68 18/43/68 198/206/68
f 18/43/69 201/209/69 167/175/69
f 201/209/70 198/206/70 200/208/70
f 201/209/71 200/208/71 167/175/71
f 18/43/72 45/51/72 13/13/72
f 42/48/73 18/43/73 167/175/73
f 200/208/74 199/207/74 167/175/74
f 202/210/75 203/211/75 204/212/75
f 202/210/76 204/212/76 6/87/76
f 203/211/77 199/207/77 204/212/77
f 75/81/78 199/207/78 204/212/78
f 204/212/79 75/81/79 6/87/79
f 6/87/80 80/88/80 202/210/80
f 202/210/81 80/88/81 203/211/81
f 80/88/82 199/207/82 203/211/82
f 6/87/83 75/81/83 37/41/83
f 6/87/84 26/28/84 80/88/84
f 40/46/85 157/165/85 39/45/85
f 41/47/86 43/49/86 205/213/86
f 165/173/87 205/213/87 41/47/87
f 119/127/88 205/213/88 43/49/88
f 151/159/89 157/165/89 40/46/89
f 75/81/12 39/45/12 54/60/12
f 43/49/2 81/89/2 80/88/2
f 41/47/2 176/184/2 167/175/2
f 199/207/90 75/81/90 45/51/90
f 157/165/91 75/81/91 66/72/91
f 45/51/92 157/165/92 151/159/92
f 75/81/93 157/165/93 45/51/93
f 40/46/94 13/13/94 45/51/94
f 37/41/95 39/45/95 75/81/95
f 167/175/96 205/213/96 165/173/96
f 80/88/97 205/213/97 119/127/97
f 167/175/98 199/207/98 80/88/98
f 205/213/99 167/175/99 80/88/99
f 133/141/1 152/160/1 154/162/1
f 187/195/1 175/183/1 4/4/1
f 138/146/4 136/144/4 161/169/4
f 4/4/55 176/184/54 2/2/12
