# Blender v3.0.1 OBJ File: 'door_dungeon.blend'
# www.blender.org
mtllib door_dungeon.mtl
o porte_Cube
v -10.000000 0.000001 22.000000
v 10.000000 0.000001 22.000000
v -1.000000 -9.999999 1.999998
v 1.000000 -10.000000 1.999998
v 10.000001 1.000001 22.000000
v 1.000001 1.000001 1.999999
v -10.000000 1.000001 22.000000
v -0.999999 1.000001 1.999999
v -3.000000 10.000001 22.000000
v 3.000001 10.000001 22.000000
v -8.000000 1.000002 21.999998
v -1.999999 9.000001 22.000000
v 2.000001 9.000001 22.000000
v 8.000001 1.000001 22.000000
v -8.000000 0.000001 22.000000
v 8.000001 0.000001 22.000000
v 1.000000 -10.000000 0.999998
v -1.000000 -9.999998 0.999999
v 1.000001 1.000001 0.999999
v -0.999999 1.000001 0.999999
vt 0.000000 0.000000
vt 0.000000 0.000000
vt 0.000000 0.000000
vt 1.000000 0.000000
vt 1.000000 1.000000
vt 1.000000 1.000000
vt 0.000000 0.000000
vt 0.000000 0.000000
vt 0.000000 1.000000
vt 1.000000 1.000000
vt 1.000000 1.000000
vt 0.000000 0.000000
vt 0.000000 0.000000
vt 0.000000 0.000000
vt 0.000000 0.000000
vt 0.000000 0.000000
vt 0.000000 0.000000
vt 0.000000 1.000000
vt 0.000000 0.000000
vt 0.000000 0.000000
vt 1.000000 0.000000
vt 0.000000 1.000000
vt 0.000000 1.000000
vt 0.000000 0.000000
vt 0.000000 0.000000
vt 0.000000 0.000000
vt 0.000000 0.000000
vn 0.0000 0.0000 1.0000
vn 0.9119 -0.0000 -0.4104
vn -0.9119 0.0000 -0.4104
vn 1.0000 -0.0000 0.0000
vn 0.0000 -0.8944 0.4472
vn -0.7438 0.5785 -0.3347
vn 0.7438 0.5785 -0.3347
vn 0.0000 0.9119 -0.4104
vn 0.9439 0.0000 0.3304
vn 0.7704 -0.5778 0.2696
vn -0.9439 0.0000 0.3304
vn -0.7704 -0.5778 0.2696
vn 0.0000 -0.9285 0.3714
vn -1.0000 0.0000 0.0000
vn -0.0000 0.0000 -1.0000
vn -0.0000 -1.0000 -0.0000
vn 0.0000 1.0000 -0.0000
usemtl AlienErodedMetal
s off
f 10/1/1 9/2/1 12/3/1
f 2/4/2 4/5/2 6/6/2
f 1/7/3 7/8/3 8/9/3
f 6/6/4 4/5/4 17/10/4 19/11/4
f 12/3/1 13/12/1 10/1/1
f 13/12/1 14/13/1 10/1/1
f 10/1/1 14/13/1 5/14/1
f 11/15/1 12/3/1 9/2/1
f 9/2/1 7/8/1 11/15/1
f 15/16/1 11/15/1 1/7/1
f 1/7/1 11/15/1 7/8/1
f 5/14/1 14/13/1 2/4/1
f 16/17/1 2/4/1 14/13/1
f 4/5/5 2/4/5 16/17/5
f 1/7/5 3/18/5 15/16/5
f 15/16/5 3/18/5 16/17/5
f 3/18/5 4/5/5 16/17/5
f 7/8/6 9/2/6 8/9/6
f 6/6/7 10/1/7 5/14/7
f 8/9/8 9/2/8 6/6/8
f 9/2/8 10/1/8 6/6/8
f 3/18/9 11/15/9 15/16/9
f 11/15/9 3/18/9 8/9/9
f 11/15/10 8/9/10 12/3/10
f 14/13/11 4/5/11 16/17/11
f 14/13/11 6/6/11 4/5/11
f 14/13/12 13/12/12 6/6/12
f 13/12/13 12/3/13 8/9/13
f 13/12/13 8/19/13 6/20/13
f 2/4/2 6/6/2 5/21/2
f 1/7/3 8/9/3 3/18/3
f 3/18/14 8/9/14 20/22/14 18/23/14
f 17/10/15 18/23/15 20/22/15
f 17/10/15 20/22/15 19/11/15
f 4/5/16 3/18/16 18/23/16 17/10/16
f 8/19/17 6/20/17 19/24/17 20/25/17
f 4/5/1 6/6/1 8/19/1
f 4/26/1 8/19/1 3/27/1
