# Blender v3.0.1 OBJ File: 'door_dungeon.blend'
# www.blender.org
mtllib door_dungeon.mtl
o panneau_gauche_Plane.002
v -9.000000 -1.000000 20.000000
v 0.000000 -1.000000 20.000000
v -2.000000 9.000000 20.000000
v 0.000000 9.000000 20.000000
v -1.877458 8.857491 21.000000
v -8.520077 -0.257491 21.000000
v -0.142509 -0.257491 21.000000
v -0.142509 8.857491 21.000000
v -2.000000 9.000000 21.000000
v -9.000000 -0.500000 21.000000
v 0.000000 -0.500000 21.000000
v 0.000000 9.000000 21.000000
vt 0.000000 1.000000
vt 1.000000 1.000000
vt 0.000000 0.000000
vt 1.000000 1.000000
vt 1.000000 0.000000
vt 0.000000 0.000000
vt 1.000000 0.000000
vt 0.000000 1.000000
vt 0.035521 0.025527
vt 0.967514 0.025527
vt 0.896384 0.974473
vt 0.109860 0.974473
vn 0.0000 0.0000 -1.0000
vn 0.0000 1.0000 0.0000
vn 0.0000 -0.8944 0.4472
vn 1.0000 0.0000 0.0000
vn -0.8051 0.5932 0.0000
vn -0.7875 0.5512 -0.2756
vn 0.0000 0.0000 1.0000
usemtl AlienDarkMetal
s off
f 3/1/1 4/2/1 1/3/1
f 3/1/2 12/4/2 4/2/2
f 2/5/3 10/6/3 1/3/3
f 4/2/4 11/7/4 2/5/4
f 3/1/5 10/6/5 9/8/5
f 2/5/1 1/3/1 4/2/1
f 3/1/2 9/8/2 12/4/2
f 2/5/3 11/7/3 10/6/3
f 4/2/4 12/4/4 11/7/4
f 3/1/6 1/3/6 10/6/6
f 6/9/7 11/7/7 7/10/7
f 7/10/7 12/4/7 8/11/7
f 6/9/7 10/6/7 11/7/7
f 7/10/7 11/7/7 12/4/7
usemtl AlienDarkBlueMetal
f 5/12/7 7/10/7 8/11/7
f 6/9/7 9/8/7 10/6/7
f 8/11/7 9/8/7 5/12/7
f 5/12/7 6/9/7 7/10/7
f 6/9/7 5/12/7 9/8/7
f 8/11/7 12/4/7 9/8/7
o panneau_droit_Plane.003
v 8.637349 -0.316750 21.000000
v 0.183249 -0.316750 21.000000
v 1.907402 8.816750 21.000000
v 0.183249 8.816750 21.000000
v 1.999999 9.000000 20.000000
v 8.999998 -1.000000 19.999998
v -0.000001 -1.000000 20.000000
v -0.000001 9.000000 20.000000
v 1.999999 9.000000 21.000000
v 8.999998 -0.500000 21.000000
v -0.000001 -0.500000 21.000000
v -0.000001 9.000000 21.000000
vt 0.000000 1.000000
vt 0.000000 0.000000
vt 1.000000 1.000000
vt 1.000000 0.000000
vt 0.000000 0.000000
vt 1.000000 0.000000
vt 0.000000 1.000000
vt 1.000000 1.000000
vt 0.026807 0.019289
vt 0.921324 0.980711
vt 0.975515 0.019289
vt 0.083556 0.980711
vn 0.0000 0.0000 -1.0000
vn 0.0000 -0.8944 0.4472
vn -1.0000 0.0000 0.0000
vn 0.8051 0.5932 0.0000
vn 0.7875 0.5513 -0.2756
vn 0.0000 0.0000 1.0000
vn 0.0000 1.0000 -0.0000
usemtl AlienDarkMetal
s off
f 17/13/8 18/14/8 20/15/8
f 23/16/9 18/14/9 22/17/9
f 23/16/10 20/15/10 19/18/10
f 22/17/11 17/13/11 21/19/11
f 19/18/8 20/15/8 18/14/8
f 23/16/9 19/18/9 18/14/9
f 23/16/10 24/20/10 20/15/10
f 22/17/12 18/14/12 17/13/12
f 13/21/13 23/16/13 22/17/13
f 16/22/13 23/16/13 14/23/13
f 13/21/13 14/23/13 23/16/13
f 16/22/13 24/20/13 23/16/13
usemtl AlienDarkBlueMetal
f 15/24/13 14/23/13 13/21/13
f 21/19/14 20/15/14 24/20/14
f 21/19/14 17/13/14 20/15/14
f 13/21/13 21/19/13 15/24/13
f 16/22/13 21/19/13 24/20/13
f 15/24/13 16/22/13 14/23/13
f 13/21/13 22/17/13 21/19/13
f 16/22/13 15/24/13 21/19/13
o porte_Cube
v -10.000000 0.000001 22.000000
v 10.000000 0.000001 22.000000
v -1.000000 -9.999999 1.999998
v 1.000000 -10.000000 1.999998
v 10.000001 1.000001 22.000000
v 1.000001 1.000001 1.999999
v -10.000000 1.000001 22.000000
v -0.999999 1.000001 1.999999
v -3.000000 10.000001 22.000000
v 3.000001 10.000001 22.000000
v -8.000000 1.000002 21.999998
v -1.999999 9.000001 22.000000
v 2.000001 9.000001 22.000000
v 8.000001 1.000001 22.000000
v -8.000000 0.000001 22.000000
v 8.000001 0.000001 22.000000
v 1.000000 -10.000000 0.999998
v -1.000000 -9.999998 0.999999
v 1.000001 1.000001 0.999999
v -0.999999 1.000001 0.999999
vt 0.000000 0.000000
vt 0.000000 0.000000
vt 0.000000 0.000000
vt 1.000000 0.000000
vt 1.000000 1.000000
vt 1.000000 1.000000
vt 0.000000 0.000000
vt 0.000000 0.000000
vt 0.000000 1.000000
vt 1.000000 1.000000
vt 1.000000 1.000000
vt 0.000000 0.000000
vt 0.000000 0.000000
vt 0.000000 0.000000
vt 0.000000 0.000000
vt 0.000000 0.000000
vt 0.000000 0.000000
vt 0.000000 1.000000
vt 0.000000 0.000000
vt 0.000000 0.000000
vt 1.000000 0.000000
vt 0.000000 1.000000
vt 0.000000 1.000000
vt 0.000000 0.000000
vt 0.000000 0.000000
vt 0.000000 0.000000
vt 0.000000 0.000000
vn 0.0000 0.0000 1.0000
vn 0.9119 -0.0000 -0.4104
vn -0.9119 0.0000 -0.4104
vn 1.0000 -0.0000 0.0000
vn 0.0000 -0.8944 0.4472
vn -0.7438 0.5785 -0.3347
vn 0.7438 0.5785 -0.3347
vn 0.0000 0.9119 -0.4104
vn 0.9439 0.0000 0.3304
vn 0.7704 -0.5778 0.2696
vn -0.9439 0.0000 0.3304
vn -0.7704 -0.5778 0.2696
vn 0.0000 -0.9285 0.3714
vn -1.0000 0.0000 0.0000
vn -0.0000 0.0000 -1.0000
vn -0.0000 -1.0000 -0.0000
vn 0.0000 1.0000 -0.0000
usemtl AlienErodedMetal
s off
f 34/25/15 33/26/15 36/27/15
f 26/28/16 28/29/16 30/30/16
f 25/31/17 31/32/17 32/33/17
f 30/30/18 28/29/18 41/34/18 43/35/18
f 36/27/15 37/36/15 34/25/15
f 37/36/15 38/37/15 34/25/15
f 34/25/15 38/37/15 29/38/15
f 35/39/15 36/27/15 33/26/15
f 33/26/15 31/32/15 35/39/15
f 39/40/15 35/39/15 25/31/15
f 25/31/15 35/39/15 31/32/15
f 29/38/15 38/37/15 26/28/15
f 40/41/15 26/28/15 38/37/15
f 28/29/19 26/28/19 40/41/19
f 25/31/19 27/42/19 39/40/19
f 39/40/19 27/42/19 40/41/19
f 27/42/19 28/29/19 40/41/19
f 31/32/20 33/26/20 32/33/20
f 30/30/21 34/25/21 29/38/21
f 32/33/22 33/26/22 30/30/22
f 33/26/22 34/25/22 30/30/22
f 27/42/23 35/39/23 39/40/23
f 35/39/23 27/42/23 32/33/23
f 35/39/24 32/33/24 36/27/24
f 38/37/25 28/29/25 40/41/25
f 38/37/25 30/30/25 28/29/25
f 38/37/26 37/36/26 30/30/26
f 37/36/27 36/27/27 32/33/27
f 37/36/27 32/43/27 30/44/27
f 26/28/16 30/30/16 29/45/16
f 25/31/17 32/33/17 27/42/17
f 27/42/28 32/33/28 44/46/28 42/47/28
f 41/34/29 42/47/29 44/46/29
f 41/34/29 44/46/29 43/35/29
f 28/29/30 27/42/30 42/47/30 41/34/30
f 32/43/31 30/44/31 43/48/31 44/49/31
f 28/29/15 30/30/15 32/43/15
f 28/50/15 32/43/15 27/51/15
