# Blender v3.0.1 OBJ File: 'door_dungeon.blend'
# www.blender.org
mtllib door_dungeon.mtl
o panneau_gauche_Plane.002
v -9.000000 -1.000000 20.000000
v 0.000000 -1.000000 20.000000
v -2.000000 9.000000 20.000000
v 0.000000 9.000000 20.000000
v -2.000000 9.000000 21.000000
v -9.000000 -0.500000 21.000000
v 0.000000 -0.500000 21.000000
v 0.000000 9.000000 21.000000
vt 0.000000 1.000000
vt 1.000000 0.000000
vt 0.000000 0.000000
vt 1.000000 0.000000
vt 0.000000 1.000000
vt 0.000000 0.000000
vt 1.000000 1.000000
vt 1.000000 1.000000
vn 0.0000 0.0000 -1.0000
vn 0.0000 0.0000 1.0000
vn 0.0000 1.0000 0.0000
vn 0.0000 -0.8944 0.4472
vn 1.0000 0.0000 0.0000
vn -0.8051 0.5932 0.0000
vn -0.7875 0.5512 -0.2756
usemtl None
s off
f 3/1/1 2/2/1 1/3/1
f 7/4/2 5/5/2 6/6/2
f 3/1/3 8/7/3 4/8/3
f 2/2/4 6/6/4 1/3/4
f 4/8/5 7/4/5 2/2/5
f 3/1/6 6/6/6 5/5/6
f 3/1/1 4/8/1 2/2/1
f 7/4/2 8/7/2 5/5/2
f 3/1/3 5/5/3 8/7/3
f 2/2/4 7/4/4 6/6/4
f 4/8/5 8/7/5 7/4/5
f 3/1/7 1/3/7 6/6/7
o panneau_droit_Plane.003
v 8.999998 -0.500000 21.000000
v -0.000001 -0.500000 21.000000
v 1.999999 9.000000 21.000000
v -0.000001 9.000000 21.000000
v 1.999999 9.000000 20.000000
v 8.999998 -1.000000 19.999998
v -0.000001 -1.000000 20.000000
v -0.000001 9.000000 20.000000
vt 0.000000 1.000000
vt 1.000000 0.000000
vt 0.000000 0.000000
vt 1.000000 0.000000
vt 0.000000 1.000000
vt 0.000000 0.000000
vt 1.000000 1.000000
vt 1.000000 1.000000
vn 0.0000 0.0000 1.0000
vn 0.0000 0.0000 -1.0000
vn 0.0000 1.0000 -0.0000
vn 0.0000 -0.8944 0.4472
vn -1.0000 0.0000 0.0000
vn 0.8051 0.5932 0.0000
vn 0.7875 0.5513 -0.2756
usemtl None
s off
f 11/9/8 10/10/8 9/11/8
f 15/12/9 13/13/9 14/14/9
f 11/9/10 16/15/10 12/16/10
f 10/10/11 14/14/11 9/11/11
f 10/10/12 16/15/12 15/12/12
f 9/11/13 13/13/13 11/9/13
f 11/9/8 12/16/8 10/10/8
f 15/12/9 16/15/9 13/13/9
f 11/9/10 13/13/10 16/15/10
f 10/10/11 15/12/11 14/14/11
f 10/10/12 12/16/12 16/15/12
f 9/11/14 14/14/14 13/13/14
o porte_Cube
v -10.000000 0.000001 22.000000
v 10.000000 0.000001 22.000000
v -1.000000 -9.999999 1.999998
v 1.000000 -10.000000 1.999998
v 10.000001 1.000001 22.000000
v 1.000001 1.000001 1.999999
v -10.000000 1.000001 22.000000
v -0.999999 1.000001 1.999999
v -3.000000 10.000001 22.000000
v 3.000001 10.000001 22.000000
v -8.000000 1.000002 21.999998
v -1.999999 9.000001 22.000000
v 2.000001 9.000001 22.000000
v 8.000001 1.000001 22.000000
v -8.000000 0.000001 22.000000
v 8.000001 0.000001 22.000000
v 1.000000 -10.000000 0.999998
v -1.000000 -9.999998 0.999999
v 1.000001 1.000001 0.999999
v -0.999999 1.000001 0.999999
vt 0.000000 0.000000
vt 0.000000 0.000000
vt 0.000000 0.000000
vt 1.000000 0.000000
vt 1.000000 1.000000
vt 1.000000 1.000000
vt 0.000000 0.000000
vt 0.000000 0.000000
vt 0.000000 1.000000
vt 1.000000 1.000000
vt 1.000000 1.000000
vt 0.000000 0.000000
vt 0.000000 0.000000
vt 0.000000 0.000000
vt 0.000000 0.000000
vt 0.000000 0.000000
vt 0.000000 0.000000
vt 0.000000 1.000000
vt 0.000000 0.000000
vt 0.000000 0.000000
vt 1.000000 0.000000
vt 0.000000 1.000000
vt 0.000000 1.000000
vt 0.000000 0.000000
vt 0.000000 0.000000
vt 0.000000 0.000000
vt 0.000000 0.000000
vn 0.0000 0.0000 1.0000
vn 0.9119 -0.0000 -0.4104
vn -0.9119 0.0000 -0.4104
vn 1.0000 -0.0000 0.0000
vn 0.0000 -0.8944 0.4472
vn -0.7438 0.5785 -0.3347
vn 0.7438 0.5785 -0.3347
vn 0.0000 0.9119 -0.4104
vn 0.9439 0.0000 0.3304
vn 0.7704 -0.5778 0.2696
vn -0.9439 0.0000 0.3304
vn -0.7704 -0.5778 0.2696
vn 0.0000 -0.9285 0.3714
vn -1.0000 0.0000 0.0000
vn -0.0000 0.0000 -1.0000
vn -0.0000 -1.0000 -0.0000
vn 0.0000 1.0000 -0.0000
usemtl None
s off
f 26/17/15 25/18/15 28/19/15
f 18/20/16 20/21/16 22/22/16
f 17/23/17 23/24/17 24/25/17
f 22/22/18 20/21/18 33/26/18 35/27/18
f 28/19/15 29/28/15 26/17/15
f 29/28/15 30/29/15 26/17/15
f 26/17/15 30/29/15 21/30/15
f 27/31/15 28/19/15 25/18/15
f 25/18/15 23/24/15 27/31/15
f 31/32/15 27/31/15 17/23/15
f 17/23/15 27/31/15 23/24/15
f 21/30/15 30/29/15 18/20/15
f 32/33/15 18/20/15 30/29/15
f 20/21/19 18/20/19 32/33/19
f 17/23/19 19/34/19 31/32/19
f 31/32/19 19/34/19 32/33/19
f 19/34/19 20/21/19 32/33/19
f 23/24/20 25/18/20 24/25/20
f 22/22/21 26/17/21 21/30/21
f 24/25/22 25/18/22 22/22/22
f 25/18/22 26/17/22 22/22/22
f 19/34/23 27/31/23 31/32/23
f 27/31/23 19/34/23 24/25/23
f 27/31/24 24/25/24 28/19/24
f 30/29/25 20/21/25 32/33/25
f 30/29/25 22/22/25 20/21/25
f 30/29/26 29/28/26 22/22/26
f 29/28/27 28/19/27 24/25/27
f 29/28/27 24/35/27 22/36/27
f 18/20/16 22/22/16 21/37/16
f 17/23/17 24/25/17 19/34/17
f 19/34/28 24/25/28 36/38/28 34/39/28
f 33/26/29 34/39/29 36/38/29
f 33/26/29 36/38/29 35/27/29
f 20/21/30 19/34/30 34/39/30 33/26/30
f 24/35/31 22/36/31 35/40/31 36/41/31
f 20/21/15 22/22/15 24/35/15
f 20/42/15 24/35/15 19/43/15
