# Blender v3.0.1 OBJ File: 'heat_core.blend'
# www.blender.org
mtllib heat_core.mtl
o crystal_Plane.004
v 0.271548 -0.153097 0.308263
v 0.483591 0.050638 0.097958
v -0.483591 -0.050638 -0.097958
v -0.271548 0.153097 -0.308263
v -0.332940 -0.216394 0.185816
v -0.049113 -0.295593 0.395263
v 0.332940 0.216394 -0.185816
v 0.049113 0.295593 -0.395263
v -0.179147 0.716856 0.513833
v 0.159241 -0.637205 -0.456741
v 1.027181 -0.507159 -0.251641
v 0.675277 -0.895356 0.167247
v 0.794099 -0.180217 -0.789026
v -0.375869 -0.302727 -1.026018
v -0.727772 -0.690923 -0.607129
v 0.060588 -1.135395 0.287820
v 0.410329 -0.892589 -0.804758
v 0.380623 -1.071373 -0.565690
v 0.117837 -0.923216 -0.864006
v 0.088131 -1.102001 -0.624938
v 1.017228 -0.467334 -0.223095
v 0.665325 -0.855531 0.195794
v 0.784147 -0.140392 -0.760479
v -0.385822 -0.262901 -0.997472
v -0.737725 -0.651098 -0.578583
v 0.050635 -1.095570 0.316366
v -0.494691 -1.017865 -0.069745
v 0.238821 -0.062687 -1.146590
v 0.228868 -0.022862 -1.118044
v -0.504644 -0.978040 -0.041199
v 0.198709 -0.795134 -0.569942
v 0.727139 0.693458 0.608947
v 0.494058 1.020400 0.071562
v 0.375236 0.305262 1.027835
v -0.794733 0.182752 0.790843
v -1.027814 0.509694 0.253458
v -0.061221 1.137930 -0.286002
v -0.117422 0.921554 0.862815
v -0.087716 1.100339 0.623747
v -0.409914 0.890927 0.803567
v -0.380208 1.069711 0.564499
v 0.737755 0.650978 0.578497
v 0.504674 0.977920 0.041113
v 0.385852 0.262781 0.997386
v -0.784117 0.140272 0.760394
v -1.017198 0.467214 0.223009
v -0.050605 1.095450 -0.316452
v -0.675911 0.897891 -0.165430
v -0.239454 0.065222 1.148407
v -0.228838 0.022742 1.117958
v -0.665295 0.855411 -0.195880
v -0.209390 0.837873 0.600577
v -0.798059 -0.012804 -0.610687
v -0.857774 0.226148 -0.439409
v -0.439296 -0.736492 0.524022
v -0.499011 -0.497540 0.695300
v 0.340683 -0.654819 0.682017
v 0.280968 -0.415867 0.853295
v 0.877679 -0.305799 0.382317
v 0.817964 -0.066847 0.553594
v 0.956894 0.170960 -0.255199
v 0.897179 0.409912 -0.083921
v 0.518916 0.417889 -0.752392
v 0.459201 0.656841 -0.581115
v -0.261063 0.336216 -0.910387
v -0.320778 0.575168 -0.739110
v -0.936989 -0.250611 0.198106
v -0.877273 -0.489563 0.026828
v -0.450035 -0.743472 0.530016
v -0.509751 -0.504520 0.701294
v -0.947729 -0.257591 0.204100
v -0.888013 -0.496543 0.032822
v 0.349443 -0.659757 0.691961
v 0.289727 -0.420806 0.863239
v 0.886439 -0.310737 0.392260
v 0.826723 -0.071785 0.563538
v 0.967634 0.177941 -0.261193
v 0.907918 0.416893 -0.089915
v 0.529656 0.424870 -0.758386
v 0.469941 0.663822 -0.587109
v -0.866534 0.231087 -0.449353
v -0.806818 -0.007865 -0.620631
v -0.269822 0.341155 -0.920331
v -0.329538 0.580107 -0.749053
vt 0.000000 1.000000
vt 0.000000 0.000000
vt 1.000000 1.000000
vt 0.000000 0.000000
vt 0.000000 0.000000
vt 0.000000 0.000000
vt 1.000000 0.000000
vt 0.000000 0.000000
vt 0.000000 0.000000
vt 0.000000 0.000000
vt 0.000000 0.000000
vt 0.000000 0.000000
vt 0.000000 0.000000
vt 0.000000 0.000000
vt 0.000000 0.000000
vt 0.000000 0.000000
vt 0.000000 0.000000
vt 0.000000 0.000000
vt 0.000000 0.000000
vt 0.000000 0.000000
vt 0.000000 0.000000
vt 0.000000 0.000000
vt 0.000000 0.000000
vt 0.000000 0.000000
vt 0.000000 0.000000
vt 0.000000 0.000000
vt 0.000000 0.000000
vt 0.000000 0.000000
vt 0.000000 0.000000
vt 0.000000 0.000000
vt 0.000000 0.000000
vt 0.000000 0.000000
vt 0.000000 0.000000
vt 0.000000 0.000000
vt 0.000000 0.000000
vt 0.000000 0.000000
vt 0.000000 0.000000
vt 0.000000 0.000000
vt 0.000000 0.000000
vt 0.000000 0.000000
vt 0.000000 0.000000
vt 0.000000 0.000000
vt 0.000000 0.000000
vt 0.000000 0.000000
vt 0.000000 0.000000
vt 0.000000 0.000000
vt 0.000000 0.000000
vt 0.000000 0.000000
vt 0.000000 0.000000
vt 0.000000 0.000000
vt 0.000000 0.000000
vt 0.000000 0.000000
vt 0.000000 0.000000
vt 0.000000 0.000000
vt 0.000000 0.000000
vt 0.000000 0.000000
vt 0.000000 0.000000
vt 0.000000 0.000000
vt 0.000000 0.000000
vt 0.000000 0.000000
vt 0.000000 0.000000
vt 0.000000 0.000000
vt 0.000000 0.000000
vt 0.000000 0.000000
vt 0.000000 0.000000
vt 0.000000 0.000000
vt 0.000000 0.000000
vt 0.000000 0.000000
vt 0.000000 0.000000
vt 0.000000 0.000000
vt 0.000000 0.000000
vt 0.000000 0.000000
vt 0.000000 0.000000
vt 0.000000 0.000000
vt 0.000000 0.000000
vt 0.000000 0.000000
vt 0.000000 0.000000
vt 0.000000 0.000000
vt 0.000000 0.000000
vt 0.000000 0.000000
vt 0.000000 0.000000
vt 0.000000 0.000000
vt 0.000000 0.000000
vt 0.000000 0.000000
vt 0.000000 0.000000
vn -0.7949 0.5384 -0.2799
vn -0.8870 -0.0160 0.4615
vn -0.6153 -0.1692 0.7699
vn 0.2917 -0.0742 0.9536
vn 0.6248 0.1423 0.7677
vn 0.4452 0.8498 -0.2820
vn 0.7169 0.6967 0.0264
vn -0.4618 0.7549 -0.4657
vn 0.6113 0.1237 -0.7817
vn 0.8766 -0.0259 -0.4805
vn -0.2745 0.0309 -0.9611
vn -0.5998 -0.1805 -0.7796
vn -0.6897 -0.7219 -0.0555
vn -0.4244 -0.8715 0.2456
vn 0.4614 -0.7787 0.4251
vn 0.7867 -0.5673 0.2435
vn 0.4879 -0.2443 -0.8380
vn 0.8278 -0.1752 0.5330
vn 0.2205 -0.3322 -0.9171
vn -0.8278 0.1752 -0.5330
vn 0.9163 0.3578 -0.1797
vn 0.3475 -0.4874 0.8011
vn 0.1991 -0.7965 -0.5709
vn 0.7064 -0.6061 -0.3655
vn -0.0683 -0.3026 -0.9507
vn -0.3752 -0.7194 -0.5846
vn 0.3749 -0.9243 0.0713
vn 0.6813 -0.7252 -0.0997
vn 0.7378 -0.3852 -0.5544
vn -0.3747 -0.5017 -0.7797
vn -0.4312 -0.8417 -0.3251
vn -0.1813 -0.9826 -0.0414
vn 0.1107 -0.9933 -0.0330
vn 0.5246 0.5787 -0.6244
vn -0.5246 -0.5787 0.6244
vn -0.9163 -0.3578 0.1797
vn -0.3475 0.4874 -0.8011
vn -0.0668 0.5792 0.8124
vn -0.3680 0.5477 0.7514
vn -0.5032 0.6239 0.5979
vn -0.4726 0.8080 0.3517
vn -0.3068 0.9158 0.2592
vn -0.0057 0.9473 0.3202
vn 0.1296 0.8711 0.4737
vn 0.0990 0.6870 0.7199
vn 0.0663 0.3072 0.9493
vn -0.2207 0.3367 0.9154
vn -0.1991 0.7965 0.5709
vn 0.3707 0.7211 0.5853
vn -0.4865 0.2493 0.8374
vn -0.7030 0.6087 0.3678
vn 0.1785 0.9829 0.0458
vn 0.4268 0.8429 0.3277
vn 0.3707 0.5050 0.7794
vn -0.7348 0.3893 0.5555
vn -0.6786 0.7271 0.1038
vn -0.3742 0.9250 -0.0661
vn -0.1116 0.9930 0.0378
vn 0.3917 -0.4997 -0.7726
vn 0.0440 -0.5361 -0.8430
vn -0.1475 -0.6606 -0.7361
vn -0.1828 -0.8731 -0.4519
vn -0.0266 -0.9612 -0.2746
vn 0.3211 -0.9248 -0.2042
vn 0.5126 -0.8003 -0.3110
vn 0.5479 -0.5878 -0.5952
vn -0.7594 -0.4936 0.4238
vn 0.9750 0.1021 0.1975
vn 0.6194 -0.3492 0.7031
vn -0.9750 -0.1021 -0.1975
vn -0.1990 0.7965 0.5709
vn 0.7594 0.4936 -0.4238
vn -0.6194 0.3492 -0.7031
vn -0.0990 -0.5959 0.7969
vn 0.0990 0.5959 -0.7969
vn 0.1990 -0.7965 -0.5709
usemtl PowerFire
s off
f 3/1/1 9/2/1 4/3/1
f 5/4/2 9/2/2 3/1/2
f 6/5/3 9/2/3 5/4/3
f 6/5/4 1/6/4 9/2/4
f 2/7/5 9/2/5 1/6/5
f 8/8/6 9/2/6 7/9/6
f 7/9/7 9/2/7 2/7/7
f 8/8/8 4/3/8 9/2/8
f 10/10/9 8/8/9 7/9/9
f 10/10/10 7/9/10 2/11/10
f 4/3/11 8/8/11 10/10/11
f 3/1/12 4/3/12 10/10/12
f 10/10/13 5/4/13 3/1/13
f 10/10/14 6/5/14 5/4/14
f 1/6/15 6/5/15 10/10/15
f 10/10/16 2/11/16 1/6/16
usemtl CoreMetal
f 17/12/17 28/13/17 13/14/17
f 12/15/18 21/16/18 22/17/18
f 19/18/19 28/13/19 17/12/19
f 14/19/20 25/20/20 24/21/20
f 13/14/21 21/16/21 11/22/21
f 12/15/22 26/23/22 16/24/22
f 18/25/23 20/26/23 19/18/23
f 17/12/24 11/22/24 18/25/24
f 19/18/25 14/19/25 28/13/25
f 19/18/26 20/26/26 15/27/26
f 16/24/27 18/25/27 12/15/27
f 12/15/28 18/25/28 11/22/28
f 11/22/29 17/12/29 13/14/29
f 14/19/30 19/18/30 15/27/30
f 20/26/31 27/28/31 15/27/31
f 20/26/32 16/24/32 27/28/32
f 20/26/33 18/25/33 16/24/33
f 29/29/34 13/14/34 28/13/34
f 26/23/35 27/28/35 16/24/35
f 25/20/36 27/28/36 30/30/36
f 29/29/37 14/19/37 24/21/37
f 29/29/38 24/21/38 31/31/38
f 29/29/39 31/31/39 23/32/39
f 21/16/40 23/32/40 31/31/40
f 22/17/41 21/16/41 31/31/41
f 26/23/42 22/17/42 31/31/42
f 30/30/43 26/23/43 31/31/43
f 30/30/44 31/31/44 25/20/44
f 24/21/45 25/20/45 31/31/45
f 22/17/22 26/23/22 12/15/22
f 30/30/35 27/28/35 26/23/35
f 15/27/36 27/28/36 25/20/36
f 15/27/20 25/20/20 14/19/20
f 28/13/37 14/19/37 29/29/37
f 23/32/34 13/14/34 29/29/34
f 23/32/21 21/16/21 13/14/21
f 11/22/18 21/16/18 12/15/18
f 17/12/23 18/25/23 19/18/23
f 38/33/46 49/34/46 34/35/46
f 33/36/21 42/37/21 43/38/21
f 40/39/47 49/34/47 38/33/47
f 35/40/36 46/41/36 45/42/36
f 34/35/18 42/37/18 32/43/18
f 33/36/34 47/44/34 37/45/34
f 41/46/48 40/39/48 38/33/48
f 38/33/49 32/43/49 39/47/49
f 40/39/50 35/40/50 49/34/50
f 40/39/51 41/46/51 36/48/51
f 37/45/52 39/47/52 33/36/52
f 33/36/53 39/47/53 32/43/53
f 32/43/54 38/33/54 34/35/54
f 35/40/55 40/39/55 36/48/55
f 41/46/56 48/49/56 36/48/56
f 41/46/57 37/45/57 48/49/57
f 41/46/58 39/47/58 37/45/58
f 50/50/22 34/35/22 49/34/22
f 47/44/37 48/49/37 37/45/37
f 46/41/20 48/49/20 51/51/20
f 50/50/35 35/40/35 45/42/35
f 50/50/59 45/42/59 52/52/59
f 50/50/60 52/52/60 44/53/60
f 42/37/61 44/53/61 52/52/61
f 43/38/62 42/37/62 52/52/62
f 47/44/63 43/38/63 52/52/63
f 51/51/64 47/44/64 52/52/64
f 51/51/65 52/52/65 46/41/65
f 45/42/66 46/41/66 52/52/66
f 44/53/22 34/35/22 50/50/22
f 49/34/35 35/40/35 50/50/35
f 36/48/36 46/41/36 35/40/36
f 36/48/20 48/49/20 46/41/20
f 51/51/37 48/49/37 47/44/37
f 43/38/34 47/44/34 33/36/34
f 32/43/21 42/37/21 33/36/21
f 44/53/18 42/37/18 34/35/18
f 39/47/48 41/46/48 38/33/48
f 72/54/67 69/55/67 71/56/67
f 58/57/48 74/58/48 76/59/48
f 83/60/23 79/61/23 65/62/23
f 69/55/67 70/63/67 71/56/67
f 56/64/48 67/65/48 71/56/48
f 68/66/23 55/67/23 69/55/23
f 54/68/68 67/65/68 68/66/68
f 74/58/48 58/57/48 70/63/48
f 74/58/69 73/69/69 75/70/69
f 57/71/23 59/72/23 75/70/23
f 82/73/70 72/54/70 81/74/70
f 60/75/71 76/59/71 78/76/71
f 60/75/71 58/57/71 76/59/71
f 78/76/72 77/77/72 79/61/72
f 61/78/23 63/79/23 79/61/23
f 64/80/48 62/81/48 78/76/48
f 84/82/73 83/60/73 82/73/73
f 54/68/48 66/83/48 84/82/48
f 65/62/23 53/84/23 82/73/23
f 60/75/70 62/81/70 61/78/70
f 73/69/74 70/63/74 69/55/74
f 83/60/75 84/82/75 80/85/75
f 81/74/73 84/82/73 82/73/73
f 63/79/74 64/80/74 65/62/74
f 66/83/69 54/68/69 53/84/69
f 76/59/69 74/58/69 75/70/69
f 68/66/23 72/54/23 53/84/23
f 76/59/68 75/70/68 77/77/68
f 62/81/48 60/75/48 78/76/48
f 80/85/48 64/80/48 78/76/48
f 78/76/68 76/59/68 77/77/68
f 71/56/70 81/74/70 72/54/70
f 80/85/72 78/76/72 79/61/72
f 79/61/75 83/60/75 80/85/75
f 65/62/23 79/61/23 63/79/23
f 60/75/70 61/78/70 59/72/70
f 61/78/67 62/81/67 63/79/67
f 66/83/71 80/85/71 84/82/71
f 64/80/48 80/85/48 66/83/48
f 53/84/68 54/68/68 68/66/68
f 65/62/69 66/83/69 53/84/69
f 62/81/67 64/80/67 63/79/67
f 64/80/74 66/83/74 65/62/74
f 67/65/48 54/68/48 71/56/48
f 81/74/48 71/56/48 54/68/48
f 56/64/48 70/63/48 58/57/48
f 73/69/74 74/58/74 70/63/74
f 53/84/23 72/54/23 82/73/23
f 81/74/48 54/68/48 84/82/48
f 70/63/48 56/64/48 71/56/48
f 61/78/23 75/70/23 59/72/23
f 75/70/23 61/78/23 77/77/23
f 77/77/23 61/78/23 79/61/23
f 83/60/23 65/62/23 82/73/23
f 72/54/23 68/66/23 69/55/23
f 69/55/23 57/71/23 73/69/23
f 55/67/23 57/71/23 69/55/23
f 73/69/76 57/71/76 75/70/76
f 57/71/75 56/64/75 58/57/75
f 57/71/75 55/67/75 56/64/75
f 60/75/73 59/72/73 58/57/73
f 57/71/73 58/57/73 59/72/73
f 56/64/72 55/67/72 67/65/72
f 55/67/72 68/66/72 67/65/72
