# Blender v3.0.1 OBJ File: 'power_core.blend'
# www.blender.org
mtllib power_core.mtl
o Icosphere
v 0.153363 -0.530086 0.235560
v -0.299241 -0.172240 0.490702
v -0.393072 -0.448052 -0.068876
v 0.151096 -0.432284 -0.387686
v 0.581239 -0.146730 -0.025135
v 0.302911 0.013986 0.517735
v -0.581239 0.146730 0.025135
v -0.302911 -0.013986 -0.517735
v 0.299241 0.172240 -0.490702
v 0.393072 0.448052 0.068876
v -0.151096 0.432284 0.387686
v -0.153363 0.530086 -0.235560
v -0.140895 -0.574934 0.097975
v -0.085744 -0.412817 0.426884
v -0.406931 -0.364598 0.247943
v 0.002157 -0.093019 0.592742
v 0.268190 -0.303357 0.442774
v 0.178957 -0.565667 -0.089417
v -0.142228 -0.517449 -0.268361
v 0.431786 -0.397823 0.123685
v 0.430455 -0.340337 -0.242651
v 0.519689 -0.078025 0.289543
v -0.264702 0.152852 0.516303
v 0.089233 0.262312 0.532193
v -0.572687 -0.177113 -0.025711
v -0.517536 -0.014995 0.303203
v -0.089233 -0.262312 -0.532193
v -0.409090 -0.271580 -0.344803
v 0.517536 0.014995 -0.303203
v 0.264702 -0.152852 -0.516303
v 0.409090 0.271580 0.344803
v 0.572687 0.177113 0.025711
v -0.430455 0.340337 0.242651
v -0.519689 0.078025 -0.289543
v -0.002157 0.093019 -0.592742
v 0.406931 0.364598 -0.247943
v 0.142228 0.517449 0.268361
v -0.431786 0.397823 -0.123685
v -0.178957 0.565667 0.089417
v -0.268190 0.303357 -0.442774
v 0.085744 0.412817 -0.426884
v 0.140895 0.574934 -0.097975
v -0.666793 -0.930121 0.256703
v -0.288201 -1.059827 -0.281664
v -0.472698 -0.623301 0.820780
v 0.672675 -0.269075 0.872201
v 1.051267 -0.398781 0.333834
v 0.330610 -0.991845 -0.531565
v 0.153806 -1.095902 0.622946
v 0.199930 -1.205034 0.347335
v 0.440149 -1.007346 0.635801
v 0.486273 -1.116477 0.360190
v -0.679573 -0.885947 0.237073
v -0.300981 -1.015653 -0.301294
v -0.485478 -0.579128 0.801150
v 0.659895 -0.224901 0.852571
v 1.038487 -0.354607 0.314204
v 0.317829 -0.947671 -0.551195
v 0.857172 -0.705601 -0.230243
v 0.053864 -0.337057 1.122101
v 0.041084 -0.292883 1.102471
v 0.844392 -0.661427 -0.249873
v 0.255164 -0.881955 0.391923
v -1.052080 0.401593 -0.335084
v -0.857985 0.708412 0.228993
v -0.673489 0.271887 -0.873451
v 0.471885 0.626113 -0.822029
v 0.665979 0.932933 -0.257952
v -0.331423 0.994657 0.530315
v -0.439616 1.005502 -0.634982
v -0.485740 1.114634 -0.359371
v -0.153272 1.094059 -0.622127
v -0.199397 1.203190 -0.346516
v -1.038448 0.354474 -0.314145
v -0.844353 0.661294 0.249932
v -0.659856 0.224768 -0.852512
v 0.485517 0.578994 -0.801091
v 0.679612 0.885814 -0.237014
v -0.317791 0.947538 0.551254
v 0.287388 1.062639 0.280414
v -0.054678 0.339868 -1.123351
v -0.041045 0.292750 -1.102412
v 0.301020 1.015520 0.301353
v -0.268880 0.929361 -0.412989
v 0.941439 -0.508017 0.032166
v 0.849191 -0.289754 0.583388
v 0.490316 0.950667 0.032170
v 0.582564 0.732404 -0.519052
v 0.581110 -0.804549 -0.400534
v 0.008424 -0.981662 -0.426244
v -0.350451 0.258759 -0.977462
v 0.222236 0.435872 -0.951752
v -0.849152 0.289621 -0.583329
v -0.941401 0.507884 -0.032107
v -0.581072 0.804416 0.400593
v -0.490277 -0.950800 -0.032111
v -0.582526 -0.732537 0.519111
v -0.222197 -0.436005 0.951811
v 0.350489 -0.258892 0.977521
v -0.008385 0.981529 0.426303
vt 0.000000 0.000000
vt 0.000000 0.000000
vt 0.000000 0.000000
vt 0.000000 0.000000
vt 0.000000 0.000000
vt 0.000000 0.000000
vt 0.000000 0.000000
vt 0.000000 0.000000
vt 0.000000 0.000000
vt 0.000000 0.000000
vt 0.000000 0.000000
vt 0.000000 0.000000
vt 0.000000 0.000000
vt 0.000000 0.000000
vt 0.000000 0.000000
vt 0.000000 0.000000
vt 0.000000 0.000000
vt 0.000000 0.000000
vt 0.000000 0.000000
vt 0.000000 0.000000
vt 0.000000 0.000000
vt 0.000000 0.000000
vt 0.000000 0.000000
vt 0.000000 0.000000
vt 0.000000 0.000000
vt 0.000000 0.000000
vt 0.000000 0.000000
vt 0.000000 0.000000
vt 0.000000 0.000000
vt 0.000000 0.000000
vt 0.000000 0.000000
vt 0.000000 0.000000
vt 0.000000 0.000000
vt 0.000000 0.000000
vt 0.000000 0.000000
vt 0.000000 0.000000
vt 0.000000 0.000000
vt 0.000000 0.000000
vt 0.000000 0.000000
vt 0.000000 0.000000
vt 0.000000 0.000000
vt 0.000000 0.000000
vt 0.000000 0.000000
vt 0.000000 0.000000
vt 0.000000 0.000000
vt 0.000000 0.000000
vt 0.000000 0.000000
vt 0.000000 0.000000
vt 0.000000 0.000000
vt 0.000000 0.000000
vt 0.000000 0.000000
vt 0.000000 0.000000
vt 0.000000 0.000000
vt 0.000000 0.000000
vt 0.000000 0.000000
vt 0.000000 0.000000
vt 0.000000 0.000000
vt 0.000000 0.000000
vt 0.181819 0.000000
vt 0.227273 0.078731
vt 0.136365 0.078731
vt 0.272728 0.157461
vt 0.318182 0.078731
vt 0.363637 0.157461
vt 0.909091 0.000000
vt 0.954545 0.078731
vt 0.863636 0.078731
vt 0.727273 0.000000
vt 0.772727 0.078731
vt 0.681818 0.078731
vt 0.545455 0.000000
vt 0.590909 0.078731
vt 0.500000 0.078731
vt 0.318182 0.236191
vt 0.090910 0.157461
vt 0.181819 0.157461
vt 0.136365 0.236191
vt 0.818182 0.157461
vt 0.909091 0.157461
vt 0.863636 0.236191
vt 0.636364 0.157461
vt 0.727273 0.157461
vt 0.681818 0.236191
vt 0.454546 0.157461
vt 0.545455 0.157461
vt 0.500000 0.236191
vt 0.227273 0.236191
vt 0.045455 0.236191
vt 0.772727 0.236191
vt 0.590909 0.236191
vt 0.409092 0.236191
vt 0.181819 0.314921
vt 0.272728 0.314921
vt 0.227273 0.393651
vt 0.000000 0.314921
vt 0.090910 0.314921
vt 0.045455 0.393651
vt 0.727273 0.314921
vt 0.818182 0.314921
vt 0.772727 0.393651
vt 0.545455 0.314921
vt 0.636364 0.314921
vt 0.590909 0.393651
vt 0.363637 0.314921
vt 0.454546 0.314921
vt 0.409092 0.393651
vt 0.500000 0.393651
vt 0.454546 0.472382
vt 0.681818 0.393651
vt 0.636364 0.472382
vt 0.863636 0.393651
vt 0.818182 0.472382
vt 0.909091 0.314921
vt 0.136365 0.393651
vt 0.090910 0.472382
vt 0.318182 0.393651
vt 0.272728 0.472382
vt 0.954545 0.236191
vt 1.000000 0.157461
vt 0.409092 0.078731
vt 0.363637 0.000000
vn -0.1631 -0.5571 0.8143
vn 0.1274 -0.5333 0.8363
vn 0.2556 -0.8835 0.3926
vn -0.3168 -0.8988 0.3029
vn 0.3814 -0.3887 0.8387
vn 0.7421 -0.5714 0.3504
vn 0.0123 -0.9722 -0.2340
vn -0.3038 -0.9526 0.0159
vn -0.3915 -0.7451 0.5400
vn 0.6975 -0.4083 0.5889
vn 0.7852 -0.6158 0.0648
vn 0.5568 -0.8038 -0.2095
vn 0.2980 -0.9369 -0.1830
vn 0.9225 0.1013 -0.3725
vn -0.3398 0.6712 -0.6588
vn -0.0450 0.7624 -0.6456
vn 0.0787 0.8641 -0.4971
vn 0.0312 0.9765 -0.2133
vn -0.1400 0.9871 -0.0781
vn -0.4348 0.8959 -0.0913
vn -0.5584 0.7941 -0.2398
vn -0.5109 0.6818 -0.5236
vn -0.3811 0.3934 -0.8366
vn 0.7850 0.4267 0.4492
vn -0.1287 0.5372 -0.8336
vn -0.2556 0.8835 -0.3926
vn -0.7389 0.5749 -0.3513
vn 0.1600 0.5608 -0.8123
vn 0.3122 0.9000 -0.3041
vn -0.5554 0.8059 0.2050
vn -0.7824 0.6191 -0.0675
vn -0.6952 0.4129 -0.5884
vn 0.3870 0.7476 -0.5398
vn 0.2998 0.9538 -0.0190
vn -0.0143 0.9732 0.2293
vn -0.2980 0.9378 0.1782
vn 0.0094 -0.7331 0.6800
vn 0.3498 -0.6278 0.6953
vn 0.5474 -0.6401 0.5391
vn 0.6022 -0.7698 0.2115
vn 0.4594 -0.8873 0.0400
vn 0.1190 -0.9926 0.0247
vn -0.0786 -0.9804 0.1809
vn -0.1334 -0.8506 0.5086
vn 0.7849 0.4267 0.4492
vn 0.2893 0.4574 0.8409
vn -0.5644 0.1934 0.8026
vn -0.9225 -0.1013 0.3725
vn -0.7849 -0.4267 -0.4492
vn -0.7850 -0.4267 -0.4492
vn -0.2893 -0.4574 -0.8409
vn 0.5644 -0.1934 -0.8026
vn -0.0753 -0.8893 0.4510
vn -0.1944 -0.4090 0.8916
vn 0.0965 -0.9886 0.1158
vn 0.4683 -0.8736 0.1325
vn 0.5262 -0.7033 0.4780
vn -0.3105 -0.0418 0.9496
vn -0.8199 -0.5614 0.1120
vn -0.0795 -0.7085 -0.7012
vn 0.8875 -0.2799 -0.3661
vn 0.7447 0.1322 0.6542
vn -0.6479 0.0088 0.7617
vn -0.8213 -0.5010 -0.2728
vn 0.1846 -0.4719 -0.8621
vn 0.9798 0.0560 -0.1919
vn 0.4653 0.3531 0.8117
vn -0.8318 0.5479 0.0890
vn -0.6532 0.2410 -0.7178
vn 0.1944 0.4090 -0.8916
vn 0.5396 0.8196 -0.1923
vn -0.0946 0.9055 0.4137
vn -0.0965 0.9886 -0.1158
vn 0.0620 0.9860 0.1545
vn 0.3678 0.9189 0.1428
vn 0.0753 0.8893 -0.4510
vn 0.3768 0.8042 -0.4596
vn 0.4599 0.5853 -0.6678
vn -0.1902 0.7131 -0.6748
vn -0.1098 0.4812 -0.8697
vn -0.3173 0.2508 -0.9146
vn -0.5262 0.7033 -0.4780
vn -0.7253 0.4634 -0.5091
vn -0.8898 0.3776 -0.2565
vn -0.4683 0.8736 -0.1325
vn -0.6192 0.7754 0.1239
vn -0.4663 0.7905 0.3971
vn 0.0795 0.7085 0.7012
vn 0.3809 0.6252 0.6811
vn 0.5419 0.7219 0.4303
vn 0.8199 0.5614 -0.1120
vn 0.8904 0.3311 -0.3125
vn 0.7402 0.3270 -0.5875
vn 0.3105 0.0418 -0.9496
vn 0.1031 -0.1916 -0.9761
vn -0.2011 -0.1164 -0.9726
vn -0.7447 -0.1322 -0.6542
vn -0.8929 -0.2204 -0.3925
vn -0.9812 0.0044 -0.1929
vn -0.8875 0.2799 0.3661
vn -0.7212 0.2844 0.6317
vn -0.5220 0.5225 0.6742
vn 0.8213 0.5010 0.2728
vn 0.8929 0.2204 0.3925
vn 0.9812 -0.0044 0.1929
vn 0.6479 -0.0088 -0.7617
vn 0.7212 -0.2844 -0.6317
vn 0.5220 -0.5225 -0.6742
vn -0.4653 -0.3531 -0.8117
vn -0.3809 -0.6252 -0.6811
vn -0.5419 -0.7219 -0.4303
vn -0.9798 -0.0560 0.1919
vn -0.8904 -0.3311 0.3125
vn -0.7402 -0.3270 0.5875
vn -0.1846 0.4719 0.8621
vn -0.1031 0.1916 0.9761
vn 0.2011 0.1164 0.9726
vn 0.6532 -0.2410 0.7178
vn 0.7253 -0.4634 0.5091
vn 0.8898 -0.3776 0.2565
vn 0.8318 -0.5479 -0.0890
vn 0.6192 -0.7754 -0.1239
vn 0.4663 -0.7905 -0.3971
vn 0.0946 -0.9055 -0.4137
vn -0.0620 -0.9860 -0.1545
vn -0.3678 -0.9189 -0.1428
vn 0.3173 -0.2508 0.9146
vn 0.1098 -0.4812 0.8697
vn 0.1902 -0.7131 0.6748
vn -0.5396 -0.8196 0.1923
vn -0.3768 -0.8042 0.4596
vn -0.4599 -0.5853 0.6678
usemtl CoreMetal
s off
f 49/1/1 60/2/1 45/3/1
f 51/4/2 60/2/2 49/1/2
f 50/5/3 52/6/3 51/4/3
f 49/1/4 43/7/4 50/5/4
f 51/4/5 46/8/5 60/2/5
f 51/4/6 52/6/6 47/9/6
f 48/10/7 50/5/7 44/11/7
f 44/11/8 50/5/8 43/7/8
f 43/7/9 49/1/9 45/3/9
f 46/8/10 51/4/10 47/9/10
f 52/6/11 59/12/11 47/9/11
f 52/6/12 48/10/12 59/12/12
f 52/6/13 50/5/13 48/10/13
f 62/13/14 85/14/14 59/12/14
f 61/15/15 99/16/15 56/17/15 63/18/15
f 61/15/16 63/18/16 55/19/16 98/20/16
f 53/21/17 97/22/17 55/19/17 63/18/17
f 54/23/18 96/24/18 53/21/18 63/18/18
f 58/25/19 90/26/19 54/23/19 63/18/19
f 62/13/20 89/27/20 58/25/20 63/18/20
f 62/13/21 63/18/21 57/28/21 85/14/21
f 56/17/22 86/29/22 57/28/22 63/18/22
f 57/28/14 47/9/14 85/14/14
f 49/1/3 50/5/3 51/4/3
f 70/30/23 81/31/23 66/32/23
f 80/33/24 87/34/24 68/35/24
f 72/36/25 81/31/25 70/30/25
f 77/37/14 67/38/14 88/39/14
f 78/40/24 68/35/24 87/34/24
f 73/41/26 72/36/26 70/30/26
f 70/30/27 64/42/27 71/43/27
f 72/36/28 67/38/28 81/31/28
f 72/36/29 73/41/29 68/35/29
f 69/44/30 71/43/30 65/45/30
f 65/45/31 71/43/31 64/42/31
f 64/42/32 70/30/32 66/32/32
f 67/38/33 72/36/33 68/35/33
f 73/41/34 80/33/34 68/35/34
f 73/41/35 69/44/35 80/33/35
f 73/41/36 71/43/36 69/44/36
f 82/46/37 92/47/37 77/37/37 84/48/37
f 82/46/38 84/48/38 76/49/38 91/50/38
f 74/51/39 93/52/39 76/49/39 84/48/39
f 75/53/40 94/54/40 74/51/40 84/48/40
f 79/55/41 95/56/41 75/53/41 84/48/41
f 83/57/42 100/58/42 79/55/42 84/48/42
f 83/57/43 84/48/43 78/40/43 87/34/43
f 77/37/44 88/39/44 78/40/44 84/48/44
f 88/39/14 68/35/14 78/40/14
f 57/28/45 86/29/45 47/9/45
f 83/57/24 87/34/24 80/33/24
f 71/43/26 73/41/26 70/30/26
f 59/12/14 85/14/14 47/9/14
f 67/38/14 68/35/14 88/39/14
f 56/17/45 46/8/45 86/29/45
f 46/8/24 47/9/24 86/29/24
f 46/8/46 56/17/46 99/16/46
f 61/15/46 60/2/46 99/16/46
f 60/2/46 46/8/46 99/16/46
f 61/15/47 98/20/47 60/2/47
f 55/19/47 45/3/47 98/20/47
f 60/2/47 98/20/47 45/3/47
f 79/55/46 100/58/46 69/44/46
f 95/56/47 79/55/47 69/44/47
f 75/53/47 95/56/47 65/45/47
f 69/44/47 65/45/47 95/56/47
f 80/33/46 69/44/46 100/58/46
f 83/57/46 80/33/46 100/58/46
f 75/53/48 65/45/48 94/54/48
f 64/42/48 74/51/48 94/54/48
f 65/45/48 64/42/48 94/54/48
f 74/51/49 64/42/49 93/52/49
f 76/49/50 93/52/50 66/32/50
f 64/42/50 66/32/50 93/52/50
f 76/49/51 66/32/51 91/50/51
f 82/46/51 91/50/51 81/31/51
f 81/31/51 91/50/51 66/32/51
f 82/46/52 81/31/52 92/47/52
f 67/38/52 77/37/52 92/47/52
f 81/31/52 67/38/52 92/47/52
f 97/22/48 53/21/48 43/7/48
f 43/7/48 45/3/48 97/22/48
f 55/19/48 97/22/48 45/3/48
f 53/21/50 96/24/50 43/7/50
f 44/11/50 43/7/50 96/24/50
f 96/24/50 54/23/50 44/11/50
f 54/23/51 90/26/51 44/11/51
f 58/25/51 48/10/51 90/26/51
f 48/10/51 44/11/51 90/26/51
f 48/10/52 58/25/52 89/27/52
f 62/13/52 59/12/52 89/27/52
f 59/12/52 48/10/52 89/27/52
usemtl PowerFire
f 1/59/53 14/60/53 13/61/53
f 2/62/54 14/63/54 16/64/54
f 1/65/55 13/66/55 18/67/55
f 1/68/56 18/69/56 20/70/56
f 1/71/57 20/72/57 17/73/57
f 2/62/58 16/64/58 23/74/58
f 3/75/59 15/76/59 25/77/59
f 4/78/60 19/79/60 27/80/60
f 5/81/61 21/82/61 29/83/61
f 6/84/62 22/85/62 31/86/62
f 2/62/63 23/74/63 26/87/63
f 3/75/64 25/77/64 28/88/64
f 4/78/65 27/80/65 30/89/65
f 5/81/66 29/83/66 32/90/66
f 6/84/67 31/86/67 24/91/67
f 7/92/68 33/93/68 38/94/68
f 8/95/69 34/96/69 40/97/69
f 9/98/70 35/99/70 41/100/70
f 10/101/71 36/102/71 42/103/71
f 11/104/72 37/105/72 39/106/72
f 39/106/73 42/107/73 12/108/73
f 39/106/74 37/105/74 42/107/74
f 37/105/75 10/101/75 42/107/75
f 42/103/76 41/109/76 12/110/76
f 42/103/77 36/102/77 41/109/77
f 36/102/78 9/98/78 41/109/78
f 41/100/79 40/111/79 12/112/79
f 41/100/80 35/99/80 40/111/80
f 35/99/81 8/113/81 40/111/81
f 40/97/82 38/114/82 12/115/82
f 40/97/83 34/96/83 38/114/83
f 34/96/84 7/92/84 38/114/84
f 38/94/85 39/116/85 12/117/85
f 38/94/86 33/93/86 39/116/86
f 33/93/87 11/104/87 39/116/87
f 24/91/88 37/105/88 11/104/88
f 24/91/89 31/86/89 37/105/89
f 31/86/90 10/101/90 37/105/90
f 32/90/91 36/102/91 10/101/91
f 32/90/92 29/83/92 36/102/92
f 29/83/93 9/98/93 36/102/93
f 30/89/94 35/99/94 9/98/94
f 30/89/95 27/80/95 35/99/95
f 27/80/96 8/113/96 35/99/96
f 28/88/97 34/96/97 8/95/97
f 28/88/98 25/77/98 34/96/98
f 25/77/99 7/92/99 34/96/99
f 26/87/100 33/93/100 7/92/100
f 26/87/101 23/74/101 33/93/101
f 23/74/102 11/104/102 33/93/102
f 31/86/103 32/90/103 10/101/103
f 31/86/104 22/85/104 32/90/104
f 22/85/105 5/81/105 32/90/105
f 29/83/106 30/89/106 9/98/106
f 29/83/107 21/82/107 30/89/107
f 21/82/108 4/78/108 30/89/108
f 27/80/109 28/118/109 8/113/109
f 27/80/110 19/79/110 28/118/110
f 19/79/111 3/119/111 28/118/111
f 25/77/112 26/87/112 7/92/112
f 25/77/113 15/76/113 26/87/113
f 15/76/114 2/62/114 26/87/114
f 23/74/115 24/91/115 11/104/115
f 23/74/116 16/64/116 24/91/116
f 16/64/117 6/84/117 24/91/117
f 17/73/118 22/85/118 6/84/118
f 17/73/119 20/72/119 22/85/119
f 20/72/120 5/81/120 22/85/120
f 20/70/121 21/82/121 5/81/121
f 20/70/122 18/69/122 21/82/122
f 18/69/123 4/78/123 21/82/123
f 18/67/124 19/79/124 4/78/124
f 18/67/125 13/66/125 19/79/125
f 13/66/126 3/119/126 19/79/126
f 16/64/127 17/120/127 6/84/127
f 16/64/128 14/63/128 17/120/128
f 14/63/129 1/121/129 17/120/129
f 13/61/130 15/76/130 3/75/130
f 13/61/131 14/60/131 15/76/131
f 14/60/132 2/62/132 15/76/132
