# Blender v3.0.1 OBJ File: 'starting_base.blend'
# www.blender.org
mtllib starting_base.mtl
o Plane.001_Plane.002
v -17.119041 10.000000 5.562227
v 2.924200 25.311779 -8.999915
v 12.387409 19.463253 8.999945
v -4.731639 19.463278 -14.562209
v 9.463136 25.311731 0.000000
v -4.731639 19.463278 14.562209
v -15.311662 19.463245 0.000000
v 12.387409 19.463253 -8.999945
v -7.655808 25.311775 5.562205
v 0.000000 10.000000 17.999998
v 2.924200 25.311779 8.999915
v -7.655808 25.311775 -5.562205
v 0.000000 28.000000 0.000000
v 16.099672 18.049881 0.000000
v 4.974984 18.049957 -15.311687
v -13.024931 18.049952 -9.463056
v -13.024931 18.049952 9.463056
v 4.974984 18.049957 15.311687
v 17.119041 10.000000 -5.562227
v 10.580141 10.000000 14.562301
v -10.580141 10.000000 14.562301
v -17.119041 10.000000 -5.562227
v 17.119041 10.000000 5.562227
v 10.580141 10.000000 -14.562301
v 0.000000 10.000000 -17.999998
v -10.580141 10.000000 -14.562301
v 9.611335 9.171045 -15.002069
v -17.119041 10.000000 5.562227
v 0.000000 10.000000 17.999998
v 0.015269 9.174886 -18.000027
v -9.595408 9.174886 -15.002275
v 17.119041 10.000000 -5.562227
v 10.580141 10.000000 14.562301
v -10.580141 10.000000 14.562301
v -17.119041 10.000000 -5.562227
v 17.119041 10.000000 5.562227
v -10.580141 0.000000 14.562301
v 0.000000 0.000000 17.999998
v 0.015269 4.225115 -17.996426
v -9.595408 4.225115 -15.002275
v 10.580141 0.000000 14.562301
v -17.119041 0.000000 -5.562227
v 9.611335 4.228955 -15.002069
v 17.119041 0.000000 5.562227
v 17.119041 0.000000 -5.562227
v -17.119041 0.000000 5.562227
v 0.000140 0.000000 0.002300
v 10.580141 10.000000 -14.562301
v 9.611335 4.228955 -2.002069
v 10.580141 0.000000 -14.562301
v -9.388666 4.228955 -3.002069
v 0.000000 10.000000 -17.999998
v -10.580141 10.000000 -14.562301
v -10.580141 0.000000 -14.562301
v 0.000000 0.000000 -17.999998
v -9.388666 9.228954 -3.002069
v 9.611335 9.228954 -2.002069
v 17.119040 -0.000001 5.562227
v -2.924202 -15.311779 -8.999915
v -12.387411 -9.463251 8.999945
v 4.731637 -9.463278 -14.562209
v -9.463139 -15.311730 0.000000
v 4.731637 -9.463278 14.562209
v 15.311660 -9.463246 0.000000
v -12.387411 -9.463251 -8.999945
v 7.655806 -15.311775 5.562205
v -0.000001 0.000000 17.999998
v -2.924202 -15.311779 8.999915
v 7.655806 -15.311775 -5.562205
v -16.099674 -8.049878 0.000000
v -4.974986 -8.049956 -15.311687
v 13.024929 -8.049952 -9.463056
v 13.024929 -8.049952 9.463056
v -4.974986 -8.049956 15.311687
v -17.119041 0.000001 -5.562227
v -10.580142 0.000001 14.562301
v 10.580140 -0.000001 14.562301
v 17.119040 -0.000001 -5.562227
v -17.119041 0.000001 5.562227
v -10.580142 0.000001 -14.562301
v -0.000001 0.000000 -17.999998
v 10.580140 -0.000001 -14.562301
v -0.000006 -16.999998 -0.000000
v -2.924206 -23.311779 8.999915
v 7.655802 -23.311775 -5.562205
v -9.463141 -23.311731 -0.000000
v -2.924206 -23.311779 -8.999915
v 7.655802 -23.311775 5.562205
v -16.099674 -80.008286 0.000000
v -17.119041 -79.984398 5.562227
v -4.974986 -79.980110 15.313824
v -0.000001 -79.983498 17.999998
v -12.387411 -79.937943 -8.999945
v 15.311660 -79.937927 0.000000
v 13.024929 -79.940651 -9.463056
v 4.731637 -79.980408 14.562209
v 10.580140 -79.984398 -14.562301
v -17.119041 -79.984398 -5.562227
v -10.580142 -79.980438 14.562301
v 17.119040 -79.984398 -5.562227
v 10.580140 -79.984398 14.562301
v 17.119040 -79.984398 5.562227
v -10.580142 -79.984398 -14.562301
vt 0.136365 0.236191
vt 0.181819 0.314921
vt 0.090910 0.314921
vt 0.045455 0.236191
vt 0.227273 0.236191
vt 0.681818 0.236191
vt 0.772727 0.236191
vt 0.727273 0.314921
vt 0.318182 0.236191
vt 0.409092 0.236191
vt 0.363637 0.314921
vt 0.818182 0.314921
vt 0.863636 0.236191
vt 0.454546 0.314921
vt 0.500000 0.236191
vt 0.409092 0.236191
vt 0.318182 0.236191
vt 0.318182 0.236191
vt 0.772727 0.236191
vt 0.681818 0.236191
vt 0.681818 0.236191
vt 0.500000 0.236191
vt 0.409092 0.236191
vt 0.863636 0.236191
vt 0.772727 0.236191
vt 0.227273 0.236191
vt 0.136365 0.236191
vt 0.136365 0.236191
vt 0.045455 0.236191
vt 0.045455 0.236191
vt 0.227273 0.236191
vt 0.000000 0.000000
vt 0.500000 0.236191
vt 0.590909 0.236191
vt 0.863636 0.236191
vt 0.954545 0.236191
vt 0.000000 0.000000
vt 0.000000 0.000000
vt 0.000000 0.000000
vt 0.000000 0.000000
vt 0.363637 0.314921
vt 0.318182 0.236191
vt 0.363637 0.314921
vt 0.000000 0.000000
vt 0.000000 0.000000
vt 0.000000 0.000000
vt 0.090910 0.314921
vt 0.181819 0.314921
vt 0.181819 0.314921
vt 0.000000 0.000000
vt 0.000000 0.000000
vt 0.818182 0.314921
vt 0.727273 0.314921
vt 0.818182 0.314921
vt 0.000000 0.000000
vt 0.000000 0.000000
vt 0.000000 0.000000
vt 0.227273 0.236191
vt 0.227273 0.236191
vt 0.454546 0.314921
vt 0.500000 0.236191
vt 0.500000 0.236191
vt 0.000000 0.000000
vt 0.000000 0.000000
vt 0.000000 0.000000
vt 0.045455 0.236191
vt 0.090910 0.314921
vt 0.863636 0.236191
vt 0.863636 0.236191
vt 0.000000 0.000000
vt 0.000000 0.000000
vt 0.727273 0.314921
vt 0.681818 0.236191
vt 0.000000 0.000000
vt 0.000000 0.000000
vt 0.454546 0.314921
vt 0.318182 0.236191
vt 0.000000 0.000000
vt 0.000000 0.000000
vt 0.000000 0.000000
vt 0.045455 0.236191
vt 0.681818 0.236191
vt 0.409092 0.393651
vt 0.772727 0.393651
vt 0.000000 0.314921
vt 0.045455 0.393651
vt 0.545455 0.314921
vt 0.636364 0.314921
vt 0.590909 0.393651
vt 0.272728 0.314921
vt 0.227273 0.393651
vt 0.590909 0.236191
vt 0.318182 0.393651
vt 0.272728 0.472382
vt 0.681818 0.393651
vt 0.636364 0.472382
vt 0.136365 0.393651
vt 0.090910 0.472382
vt 0.863636 0.393651
vt 0.818182 0.472382
vt 0.909091 0.314921
vt 0.500000 0.393651
vt 0.454546 0.472382
vt 0.954545 0.236191
vt 0.954545 0.236191
vt 0.580867 0.236191
vt 0.590909 0.236191
vt 0.510043 0.236191
vt 0.510043 0.236191
vt 0.580867 0.236191
vt 0.597652 0.236191
vt 0.675076 0.236191
vt 0.675076 0.236191
vt 0.597652 0.236191
vt 0.409092 0.393651
vt 0.772727 0.393651
vt 0.000000 0.314921
vt 0.045455 0.393651
vt 0.545455 0.314921
vt 0.636364 0.314921
vt 0.590909 0.393651
vt 0.272728 0.314921
vt 0.227273 0.393651
vt 0.590909 0.236191
vt 0.318182 0.393651
vt 0.681818 0.393651
vt 0.136365 0.393651
vt 0.863636 0.393651
vt 0.909091 0.314921
vt 0.500000 0.393651
vt 0.954545 0.236191
vt 0.772727 0.393651
vt 0.681818 0.393651
vt 0.590909 0.393651
vt 0.318182 0.393651
vt 0.227273 0.393651
vt 0.409092 0.393651
vt 0.045455 0.393651
vt 0.272728 0.472382
vt 0.636364 0.472382
vt 0.136365 0.393651
vt 0.090910 0.472382
vt 0.863636 0.393651
vt 0.818182 0.472382
vt 0.500000 0.393651
vt 0.454546 0.472382
vn -0.0247 0.3304 0.9435
vn -0.3035 0.1876 0.9342
vn 0.3066 0.1256 0.9435
vn -0.8026 0.1256 -0.5831
vn 0.9921 0.1256 0.0000
vn -0.9050 0.3304 -0.2680
vn -0.9822 0.1876 0.0000
vn 0.8897 0.3304 -0.3151
vn 0.7947 0.1876 -0.5773
vn 1.0000 0.0000 0.0000
vn -0.8090 0.0000 -0.5878
vn 0.8090 0.0000 -0.5878
vn -1.0000 0.0000 0.0000
vn 0.3090 0.0000 0.9511
vn -0.3090 0.0000 0.9511
vn 0.0000 -1.0000 0.0000
vn 0.0526 0.0000 -0.9986
vn 0.9836 0.0000 0.1803
vn -0.0770 -0.0000 -0.9970
vn -0.9720 0.0000 0.2349
vn 0.1325 0.0000 -0.9912
vn 0.9511 0.0000 0.3090
vn 0.0000 0.0000 -1.0000
vn -0.9511 0.0000 0.3090
vn -0.9017 0.0000 0.4323
vn 0.9244 0.0000 0.3813
vn -0.0772 0.0000 -0.9970
vn 0.1329 -0.0000 -0.9911
vn 0.7240 0.6617 -0.1947
vn -0.7002 0.6617 -0.2680
vn -0.4713 0.6617 0.5831
vn 0.0385 0.6617 -0.7488
vn 0.4089 0.6617 0.6284
vn -0.0247 0.3304 -0.9435
vn -0.5346 0.3304 0.7779
vn -0.3035 0.1876 -0.9342
vn -0.5346 0.3304 -0.7779
vn 0.2680 0.9435 0.1947
vn 0.4911 0.7947 0.3568
vn 0.7240 0.6617 0.1947
vn -0.1024 0.9435 -0.3151
vn -0.1876 0.7947 -0.5773
vn -0.4713 0.6617 -0.5831
vn -0.1024 0.9435 0.3151
vn -0.1876 0.7947 0.5773
vn 0.0385 0.6617 0.7488
vn 0.3066 0.1256 -0.9435
vn -0.3313 0.9435 0.0000
vn -0.6071 0.7947 0.0000
vn -0.7002 0.6617 0.2680
vn 0.2680 0.9435 -0.1947
vn 0.4911 0.7947 -0.3568
vn 0.4089 0.6617 -0.6284
vn 0.5746 0.3304 0.7488
vn 0.7947 0.1876 0.5773
vn 0.8897 0.3304 0.3151
vn -0.9050 0.3304 0.2680
vn -0.8026 0.1256 0.5831
vn 0.5746 0.3304 -0.7488
vn 0.8090 0.0000 0.5878
vn -0.8090 0.0000 0.5878
vn 0.3090 0.0058 -0.9510
vn 0.4133 0.0000 -0.9106
vn 0.2977 -0.0310 -0.9541
vn -0.2943 0.1519 -0.9436
vn -0.4079 0.0000 -0.9130
vn -0.2974 0.0019 -0.9547
vn -0.0001 1.0000 -0.0003
vn -0.0004 1.0000 0.0000
vn 0.0000 1.0000 -0.0002
vn 0.9999 0.0000 -0.0172
vn -0.0018 -1.0000 0.0045
vn 0.0014 -1.0000 0.0045
vn -0.0002 -1.0000 0.0035
vn -0.3089 -0.0270 -0.9507
vn 0.3090 -0.0003 -0.9511
vn -0.3090 -0.0057 -0.9510
vn 0.2946 0.1559 -0.9428
vn -0.7240 -0.6617 -0.1947
vn 0.7002 -0.6617 -0.2680
vn 0.4713 -0.6617 0.5831
vn -0.0385 -0.6617 -0.7488
vn -0.4089 -0.6617 0.6284
vn 0.0247 -0.3304 -0.9435
vn 0.5346 -0.3304 0.7779
vn 0.3035 -0.1876 -0.9342
vn 0.5346 -0.3304 -0.7779
vn -0.4911 -0.7947 0.3568
vn -0.7240 -0.6617 0.1947
vn 0.1876 -0.7947 -0.5773
vn 0.4713 -0.6617 -0.5831
vn 0.1876 -0.7947 0.5773
vn -0.0385 -0.6617 0.7488
vn -0.3066 -0.1256 -0.9435
vn 0.6071 -0.7947 0.0000
vn 0.7002 -0.6617 0.2680
vn -0.4911 -0.7947 -0.3568
vn -0.4089 -0.6617 -0.6284
vn -0.5746 -0.3304 0.7488
vn -0.7947 -0.1876 0.5773
vn -0.8897 -0.3304 0.3151
vn 0.9050 -0.3304 0.2680
vn 0.8026 -0.1256 0.5831
vn -0.5746 -0.3304 -0.7488
vn 0.3090 -0.0000 -0.9511
vn 0.5146 -0.7716 -0.3739
vn -0.1966 -0.7716 0.6050
vn -0.1966 -0.7716 -0.6050
vn -0.6361 -0.7716 0.0000
vn 0.5146 -0.7716 0.3739
usemtl MetallicCadre
s off
f 10/1/1 18/2/1 6/3/1
f 21/4/2 10/1/2 6/3/2
f 10/1/3 20/5/3 18/2/3
f 26/6/4 22/7/4 16/8/4
f 23/9/5 19/10/5 14/11/5
f 22/7/6 7/12/6 16/8/6
f 22/7/7 1/13/7 7/12/7
f 19/10/8 8/14/8 14/11/8
f 19/10/9 24/15/9 8/14/9
f 32/16/10 36/17/10 44/18/10
f 35/19/11 53/20/11 54/21/11
f 48/22/12 32/16/12 45/23/12
f 28/24/13 35/19/13 42/25/13
f 33/26/14 29/27/14 38/28/14
f 29/27/15 34/29/15 37/30/15
f 44/18/16 41/31/16 47/32/16
f 45/23/16 44/18/16 47/32/16
f 50/33/16 45/23/16 47/32/16
f 55/34/16 50/33/16 47/32/16
f 54/21/16 55/34/16 47/32/16
f 42/25/16 54/21/16 47/32/16
f 46/35/16 42/25/16 47/32/16
f 37/36/16 46/35/16 47/32/16
f 38/28/16 37/36/16 47/32/16
f 41/31/16 38/28/16 47/32/16
f 51/37/17 57/38/17 49/39/17
f 56/40/17 57/38/17 51/37/17
f 50/33/12 48/22/12 45/23/12
f 45/23/10 32/16/10 44/18/10
f 41/31/14 33/26/14 38/28/14
f 38/28/15 29/27/15 37/30/15
f 46/35/13 28/24/13 42/25/13
f 42/25/11 35/19/11 54/21/11
f 70/41/18 90/42/18 89/43/18
f 58/44/10 100/45/10 78/46/10
f 63/47/19 91/48/19 74/49/19
f 78/46/12 97/50/12 82/51/12
f 64/52/20 95/53/20 94/54/20
f 67/55/15 99/56/15 92/57/15
f 74/49/21 99/58/21 76/59/21
f 65/60/22 103/61/22 80/62/22
f 80/63/11 98/64/11 75/65/11
f 63/47/23 101/66/23 96/67/23
f 64/52/24 102/68/24 58/69/24
f 77/70/14 92/57/14 101/71/14
f 72/72/25 97/73/25 95/53/25
f 75/65/13 90/74/13 79/75/13
f 65/60/26 89/43/26 93/76/26
f 70/41/18 79/77/18 90/42/18
f 58/44/10 102/78/10 100/45/10
f 63/47/27 96/67/27 91/48/27
f 78/46/12 100/45/12 97/50/12
f 64/52/20 72/72/20 95/53/20
f 67/55/15 76/79/15 99/56/15
f 74/49/28 91/48/28 99/58/28
f 65/60/22 93/76/22 103/61/22
f 80/63/11 103/80/11 98/64/11
f 63/47/23 77/81/23 101/66/23
f 64/52/24 94/54/24 102/68/24
f 77/70/14 67/55/14 92/57/14
f 72/72/25 82/82/25 97/73/25
f 75/65/13 98/64/13 90/74/13
f 65/60/26 70/41/26 89/43/26
usemtl HardStructure
f 14/11/29 8/14/29 5/83/29
f 16/8/30 7/12/30 12/84/30
f 17/85/31 6/3/31 9/86/31
f 15/87/32 4/88/32 2/89/32
f 18/2/33 3/90/33 11/91/33
f 25/92/34 4/88/34 15/87/34
f 21/4/35 6/3/35 17/85/35
f 25/92/36 26/6/36 4/88/36
f 26/6/37 16/8/37 4/88/37
f 11/91/38 5/93/38 13/94/38
f 11/91/39 3/90/39 5/93/39
f 3/90/40 14/11/40 5/93/40
f 2/89/41 12/95/41 13/96/41
f 2/89/42 4/88/42 12/95/42
f 4/88/43 16/8/43 12/95/43
f 9/86/44 11/97/44 13/98/44
f 9/86/45 6/3/45 11/97/45
f 6/3/46 18/2/46 11/97/46
f 24/15/47 25/92/47 15/87/47
f 12/84/48 9/99/48 13/100/48
f 12/84/49 7/12/49 9/99/49
f 7/12/50 17/101/50 9/99/50
f 5/83/51 2/102/51 13/103/51
f 5/83/52 8/14/52 2/102/52
f 8/14/53 15/87/53 2/102/53
f 20/5/54 3/90/54 18/2/54
f 20/5/55 23/9/55 3/90/55
f 23/9/56 14/11/56 3/90/56
f 1/13/57 17/101/57 7/12/57
f 1/13/58 21/104/58 17/101/58
f 24/15/59 15/87/59 8/14/59
f 36/17/60 33/26/60 41/31/60
f 34/105/61 28/24/61 46/35/61
f 30/106/62 52/107/62 48/22/62
f 43/108/63 27/109/63 48/22/63
f 39/110/64 43/108/64 50/33/64
f 30/111/65 31/112/65 53/20/65
f 40/113/66 54/21/66 53/20/66
f 40/113/67 39/114/67 55/34/67
f 40/113/68 51/37/68 39/114/68
f 39/110/69 49/39/69 43/108/69
f 49/39/70 39/110/70 51/37/70
f 56/40/71 51/37/71 40/113/71
f 30/106/72 27/109/72 57/38/72
f 31/112/73 30/111/73 56/40/73
f 56/40/74 30/111/74 57/38/74
f 43/108/13 49/39/13 57/38/13
f 27/109/13 43/108/13 57/38/13
f 31/112/71 56/40/71 40/113/71
f 44/18/60 36/17/60 41/31/60
f 37/36/61 34/105/61 46/35/61
f 54/21/75 40/113/75 55/34/75
f 55/34/76 39/110/76 50/33/76
f 52/107/77 30/111/77 53/20/77
f 27/109/78 30/106/78 48/22/78
f 31/112/66 40/113/66 53/20/66
f 50/33/63 43/108/63 48/22/63
f 70/41/79 65/60/79 62/115/79
f 72/72/80 64/52/80 69/116/80
f 73/117/81 63/47/81 66/118/81
f 71/119/82 61/120/82 59/121/82
f 74/49/83 60/122/83 68/123/83
f 81/124/84 61/120/84 71/119/84
f 77/81/85 63/47/85 73/117/85
f 81/124/86 82/82/86 61/120/86
f 82/82/87 72/72/87 61/120/87
f 68/123/88 60/122/88 62/125/88
f 60/122/89 70/41/89 62/125/89
f 59/121/90 61/120/90 69/126/90
f 61/120/91 72/72/91 69/126/91
f 66/118/92 63/47/92 68/127/92
f 63/47/93 74/49/93 68/127/93
f 80/62/94 81/124/94 71/119/94
f 69/116/95 64/52/95 66/128/95
f 64/52/96 73/129/96 66/128/96
f 62/115/97 65/60/97 59/130/97
f 65/60/98 71/119/98 59/130/98
f 76/59/99 60/122/99 74/49/99
f 76/59/100 79/77/100 60/122/100
f 79/77/101 70/41/101 60/122/101
f 58/69/102 73/129/102 64/52/102
f 58/69/103 77/131/103 73/129/103
f 80/62/104 71/119/104 65/60/104
usemtl Reactor
f 66/128/10 85/132/10 69/116/10
f 59/121/105 85/133/105 87/134/105
f 68/123/61 86/135/61 84/136/61
f 59/130/11 86/137/11 62/115/11
f 68/127/14 88/138/14 66/118/14
f 84/136/106 86/135/106 83/139/106
f 87/134/107 85/133/107 83/140/107
f 88/138/108 84/141/108 83/142/108
f 85/132/109 88/143/109 83/144/109
f 86/137/110 87/145/110 83/146/110
f 66/128/10 88/143/10 85/132/10
f 59/121/105 69/126/105 85/133/105
f 68/123/61 62/125/61 86/135/61
f 59/130/11 87/145/11 86/137/11
f 68/127/14 84/141/14 88/138/14
